<svg width="60" height="60" viewBox="0 0 60 60" fill="none" xmlns="http://www.w3.org/2000/svg">
<path d="M29.872 59.4149C29.7539 59.4149 29.6489 59.3924 29.5439 59.3437C28.537 58.8862 5.00391 47.8818 5.00391 33.8193V9.09182C5.00391 9.08057 5.00391 9.06744 5.00391 9.04494C5.00391 9.03369 5.00391 9.00932 5.00391 8.99807C5.00391 8.56494 5.37891 8.16557 5.80078 8.22557C5.95266 8.20119 22.207 8.29494 29.332 1.01807C29.3902 0.959941 29.4502 0.913066 29.5195 0.877441C29.6377 0.819316 29.8008 0.783691 29.8945 0.783691C30.0127 0.783691 30.1289 0.808066 30.2339 0.866191C30.3052 0.901816 30.3745 0.948691 30.4327 1.00682C30.4327 1.00682 30.4439 1.00682 30.4439 1.01807C37.252 7.96682 53.4708 8.21432 55.1114 8.22557C55.5802 8.13182 56.0377 8.51807 56.0377 8.99807V33.8306C56.0377 47.9043 31.2408 58.8974 30.187 59.3662C30.082 59.4018 29.9752 59.4131 29.8702 59.4131L29.872 59.4149ZM6.56391 9.78557V33.8212C6.56391 46.0556 27.0595 56.4037 29.8852 57.7743C32.8027 56.4262 54.472 46.0668 54.472 33.8212V9.78557C50.9452 9.72744 36.8939 9.07119 29.8983 2.64932C22.9833 9.03557 9.93891 9.71619 6.56391 9.78557Z" fill="#5E686C"/>
<path d="M29.8355 51.1405C29.7305 51.1405 29.6123 51.118 29.5073 51.0693C28.7686 50.7411 11.4492 42.7949 11.4492 32.4824V16.4512C11.4492 16.018 11.8017 15.6655 12.2348 15.6655C12.668 15.6655 13.0205 16.018 13.0205 16.4512V32.4937C13.0205 41.1074 27.5273 48.3843 29.8486 49.498C32.2748 48.4087 47.8486 41.0962 47.8486 32.4937V16.4512C47.8486 16.018 48.2011 15.6655 48.6342 15.6655C49.0673 15.6655 49.4198 16.018 49.4198 16.4512V32.4937C49.4198 42.8174 30.9398 50.7524 30.143 51.0805C30.0492 51.1274 29.9442 51.1387 29.8392 51.1387L29.8355 51.1405Z" fill="#2E4800"/>
<path d="M12.315 16.5712C12.2456 16.5712 12.1856 16.5712 12.1631 16.5712C11.73 16.5599 11.3906 16.2074 11.3906 15.7743C11.4019 15.3412 11.7075 15.0131 12.1875 15.0018C12.2925 15.0018 23.7188 15.0843 29.3662 9.28306C29.67 8.97931 30.1631 8.96619 30.48 9.27181C30.7856 9.57556 30.7969 10.0687 30.4913 10.3856C24.6675 16.3631 13.7812 16.5712 12.315 16.5712Z" fill="#2E4800"/>
<path d="M48.4205 16.5711C46.8512 16.5711 35.1905 16.3592 29.3668 10.3836C29.063 10.0799 29.0743 9.57548 29.378 9.26986C29.6818 8.96423 30.1862 8.97736 30.4918 9.28111C36.1393 15.0824 48.4337 14.9886 48.5612 14.9999H48.5724C49.0055 14.9999 49.3468 15.3392 49.358 15.7724C49.3693 16.2055 49.0187 16.558 48.5837 16.5692C48.548 16.5692 48.5012 16.5692 48.4205 16.5692V16.5711Z" fill="#2E4800"/>
<path d="M18.0252 22.1961C17.8264 22.1961 17.6258 22.1136 17.4739 21.9617C17.1702 21.6579 17.1702 21.1648 17.4739 20.848L19.1258 19.1961C19.4295 18.8923 19.9227 18.8923 20.2395 19.1961C20.5433 19.4998 20.5433 19.9929 20.2395 20.3098L18.5877 21.9617C18.4227 22.1136 18.2239 22.1961 18.0252 22.1961Z" fill="#5E686C"/>
<path d="M17.1931 29.6365C16.9944 29.6365 16.7937 29.554 16.6419 29.4021C16.3381 29.0984 16.3381 28.6052 16.6419 28.2884L25.7469 19.1946C26.0506 18.8909 26.5437 18.8909 26.8606 19.1946C27.1644 19.4984 27.1644 19.9915 26.8606 20.3084L17.7556 29.4134C17.6037 29.5652 17.4031 29.6365 17.1931 29.6365Z" fill="#5E686C"/>
</svg>
