<svg width="60" height="60" viewBox="0 0 60 60" fill="none" xmlns="http://www.w3.org/2000/svg">
<g clip-path="url(#clip0_1099_122593)">
<path d="M58.2178 57.9261H33.0928C33.0928 57.9149 33.0928 57.9036 33.0928 57.8905V45.3505C33.1153 45.2793 33.1284 45.1986 33.1284 45.1274C33.1284 45.0449 33.1172 44.9755 33.0928 44.9043V17.8105C33.0928 17.3643 32.7291 17.0136 32.2959 17.0136C31.8497 17.0136 31.4991 17.3774 31.4991 17.8105V29.9155H16.9566V17.8105C16.9566 17.3643 16.5928 17.0136 16.1597 17.0136C15.7134 17.0136 15.3628 17.3774 15.3628 17.8105V29.9155H2.26219C2.25094 29.9155 2.23969 29.9155 2.22656 29.9155V1.56738C2.22656 1.12113 1.86281 0.770508 1.42969 0.770508C0.983438 0.770508 0.632812 1.13426 0.632812 1.56738V58.7305C0.632812 59.1768 0.996563 59.5274 1.42969 59.5274H58.2197C58.6659 59.5274 59.0166 59.1636 59.0166 58.7305C59.0166 58.2843 58.6641 57.9224 58.2197 57.9224L58.2178 57.9261ZM2.22656 45.9261H15.3516V57.8905C15.3516 57.9018 15.3516 57.913 15.3516 57.9261H2.22656V45.9261ZM16.9566 57.8905V45.9261H31.4991V57.8905C31.4991 57.9018 31.4991 57.913 31.4991 57.9261H16.9453C16.9566 57.9149 16.9566 57.9036 16.9566 57.8905ZM31.4878 31.5243V44.3324H16.9566V31.5243H31.4878ZM2.26031 31.5243H15.3497V44.3324H2.22469V31.5111C2.23594 31.5111 2.24719 31.5243 2.26031 31.5243Z" fill="#5E686C"/>
<path d="M58.2187 25.29C57.7725 25.29 57.4219 24.9263 57.4219 24.4932V16.1025H49.0312C48.585 16.1025 48.2344 15.7388 48.2344 15.3057C48.2344 14.8613 48.5981 14.5088 49.0312 14.5088H58.2187C58.665 14.5088 59.0156 14.8725 59.0156 15.3057V24.4932C59.0156 24.9394 58.6631 25.29 58.2187 25.29Z" fill="#2E4800"/>
<path d="M57.9022 15.5381C57.574 15.2456 57.0584 15.2812 56.7772 15.6206L32.3665 43.8619L26.284 35.8462C26.2728 35.835 26.2615 35.8237 26.2484 35.8106C26.2353 35.7975 26.2372 35.7994 26.2259 35.7881L26.2147 35.7769C26.0497 35.6006 25.8284 35.5312 25.6053 35.5425C25.594 35.5425 25.5828 35.5425 25.5697 35.5425C25.5003 35.5537 25.429 35.565 25.3578 35.5894C25.264 35.625 25.1815 35.6719 25.1122 35.7412L0.877776 58.1475C0.549651 58.4531 0.538401 58.9556 0.830901 59.2837C0.982776 59.46 1.2059 59.5406 1.41778 59.5406C1.61653 59.5406 1.80403 59.4694 1.9559 59.3287L25.5453 37.5094L31.6972 45.6075C31.7084 45.63 31.7328 45.6544 31.744 45.6656C31.7553 45.6769 31.7797 45.6881 31.7909 45.7125L31.8022 45.7237C31.8378 45.7594 31.8734 45.7819 31.9072 45.8062C31.9184 45.8062 31.9184 45.8175 31.9297 45.8175C31.9653 45.84 32.0009 45.8531 32.0347 45.8644C32.0459 45.8644 32.0459 45.8644 32.0572 45.8756C32.0928 45.8869 32.1397 45.8981 32.1753 45.9112C32.1865 45.9112 32.1978 45.9112 32.2109 45.9112C32.2465 45.9225 32.2934 45.9225 32.329 45.9225C32.3647 45.9225 32.4003 45.9225 32.4472 45.9112C32.4584 45.9112 32.4697 45.9112 32.4697 45.9112C32.5053 45.9 32.5409 45.9 32.5746 45.8887H32.5859C32.6215 45.8775 32.644 45.8662 32.6797 45.8531C32.6909 45.8531 32.7022 45.8419 32.7022 45.8419C32.7378 45.8306 32.7603 45.8062 32.7959 45.7837C32.7959 45.7837 32.7959 45.7837 32.8072 45.7837C32.854 45.7481 32.9009 45.7012 32.9365 45.6544L57.979 16.6856C58.2715 16.3219 58.2359 15.8175 57.8965 15.5362L57.9022 15.5381Z" fill="#2E4800"/>
</g>
<defs>
<clipPath id="clip0_1099_122593">
<rect width="60" height="60" fill="white"/>
</clipPath>
</defs>
</svg>
