<svg width="60" height="60" viewBox="0 0 60 60" fill="none" xmlns="http://www.w3.org/2000/svg">
<path d="M17.7996 12.54C17.9177 12.8682 18.2215 13.0782 18.5721 13.0782H40.7665C41.1059 13.0782 41.4227 12.855 41.5409 12.54L43.5921 6.73879C43.9671 5.80129 43.849 4.74566 43.2865 3.91504C42.724 3.08441 41.7865 2.58004 40.7665 2.58004H34.9896C33.5834 1.16254 31.6615 0.352539 29.6571 0.352539C27.6527 0.352539 25.7421 1.16066 24.3359 2.58004H18.5459C17.539 2.58004 16.6015 3.08441 16.0371 3.91504C15.4727 4.74566 15.3565 5.80129 15.7202 6.70504L17.794 12.54H17.7996ZM17.4002 4.81691C17.6702 4.43066 18.0921 4.19629 18.5609 4.19629H24.6077C24.619 4.19629 24.6434 4.19629 24.6546 4.19629C24.889 4.20754 25.1234 4.11379 25.2996 3.92629C26.4021 2.68316 27.9959 1.98004 29.659 1.98004C31.3221 1.98004 32.9046 2.69441 34.0184 3.92629L34.0296 3.93754C34.0409 3.94879 34.0521 3.96191 34.0652 3.97316C34.0784 3.98441 34.0877 3.98441 34.0877 3.99754C34.0877 4.01066 34.1102 4.02191 34.1234 4.02191C34.1346 4.03316 34.1459 4.03316 34.159 4.04629C34.1721 4.05941 34.1815 4.05754 34.1946 4.07066C34.2059 4.08191 34.2171 4.08191 34.2302 4.09504C34.2415 4.09504 34.2527 4.10629 34.2659 4.10629C34.2771 4.11754 34.2884 4.11754 34.3015 4.13066C34.3127 4.13066 34.324 4.14191 34.3371 4.14191C34.3502 4.14191 34.3596 4.15316 34.384 4.15316C34.3952 4.15316 34.4065 4.15316 34.4196 4.16441C34.4909 4.18879 34.5602 4.18879 34.6315 4.18879H40.7609C41.2296 4.18879 41.6627 4.41191 41.9215 4.80941C42.1915 5.19566 42.2384 5.67566 42.0509 6.14441L40.1871 11.4413H19.1515L17.2765 6.12191C17.089 5.68879 17.1471 5.22004 17.4059 4.82066L17.4002 4.81691Z" fill="#5E686B"/>
<path d="M41.2973 16.0894C41.1455 15.96 40.958 15.8906 40.7705 15.8906H18.563C18.3642 15.8906 18.1767 15.96 18.0361 16.0894C17.3911 16.6406 2.21484 29.835 2.21484 45.5625C2.21484 54.7856 9.12984 59.6944 14.1323 59.6944H45.2105C50.2036 59.6944 57.128 54.7837 57.128 45.5606C57.1167 29.8219 41.9405 16.6387 41.2955 16.0875L41.2973 16.0894ZM45.1992 58.0669H14.1323C9.81984 58.0669 3.84422 53.7187 3.84422 45.5625C3.84422 31.5825 16.9936 19.2187 18.8798 17.52H40.4536C42.3286 19.2075 55.4892 31.5712 55.4892 45.5625C55.4892 53.7187 49.5117 58.0669 45.1992 58.0669Z" fill="#5E686B"/>
<path d="M30.4794 23.9643V22.1005C30.4794 21.6543 30.1156 21.2793 29.6581 21.2793C29.2119 21.2793 28.8369 21.643 28.8369 22.1005V23.9643C24.9575 24.3749 21.9219 27.6674 21.9219 31.6518C21.9219 35.4018 24.7925 38.5068 28.8369 39.2699V50.2855C26.3169 49.7812 24.4062 47.5555 24.4062 44.8949C24.4062 44.4487 24.0425 44.0737 23.585 44.0737C23.1388 44.0737 22.7637 44.4374 22.7637 44.8949C22.7637 48.4574 25.4 51.4218 28.8219 51.9487V52.5805C28.8219 53.0268 29.1856 53.4018 29.6431 53.4018C30.0894 53.4018 30.4644 53.038 30.4644 52.5805V52.0068C34.1431 51.7255 37.0494 48.643 37.0494 44.893C37.0494 41.3418 34.4356 38.5874 30.4644 37.873V25.6162C33.44 26.0155 35.75 28.5693 35.75 31.663C35.75 32.1093 36.1137 32.4843 36.5712 32.4843C37.0287 32.4843 37.3925 32.1205 37.3925 31.663C37.3925 27.6674 34.3569 24.3749 30.4775 23.9643H30.4794ZM23.5662 31.6518C23.5662 28.5693 25.8744 26.0043 28.8519 25.6049V37.6049C25.7 36.913 23.5662 34.558 23.5662 31.6518ZM35.4369 44.8949C35.4369 47.743 33.2563 50.0868 30.4925 50.368V39.5287C33.4812 40.1849 35.4369 42.2568 35.4369 44.8949Z" fill="#2E4800"/>
</svg>
