<svg width="60" height="60" viewBox="0 0 60 60" fill="none" xmlns="http://www.w3.org/2000/svg">
<path d="M29.9991 59.6495C18.0966 59.6495 8.41406 49.967 8.41406 38.0645C8.41406 26.162 18.0966 16.4795 29.9991 16.4795C41.9016 16.4795 51.5841 26.162 51.5841 38.0645C51.5841 49.967 41.9016 59.6495 29.9991 59.6495ZM29.9991 18.077C18.9778 18.077 10.0134 27.0432 10.0134 38.0626C10.0134 49.082 18.9797 58.0501 29.9991 58.0501C41.0203 58.0501 49.9847 49.0839 49.9847 38.0626C49.9847 27.0414 41.0184 18.077 29.9991 18.077Z" fill="#5E686B"/>
<path d="M30.0019 45.0748C29.5594 45.0748 29.2031 44.7166 29.2031 44.276V34.6835C29.2031 34.241 29.5612 33.8848 30.0019 33.8848C30.4425 33.8848 30.8006 34.2429 30.8006 34.6835V44.2779C30.8006 44.7204 30.4425 45.0748 30.0019 45.0748Z" fill="#2E4800"/>
<path d="M39.9177 14.7752C39.4752 14.7752 39.1189 14.417 39.1189 13.9764V7.60141C39.1189 4.52453 36.612 2.02328 33.5333 2.02328H26.4683C23.3877 2.02328 20.8827 4.52453 20.8827 7.60141V13.9764C20.8827 14.4189 20.5245 14.7752 20.0839 14.7752C19.6433 14.7752 19.2852 14.417 19.2852 13.9764V7.60141C19.2852 3.64516 22.5083 0.425781 26.4702 0.425781H33.5352C37.497 0.425781 40.7202 3.64516 40.7202 7.60141V13.9764C40.7202 14.4189 40.3602 14.7752 39.9177 14.7752Z" fill="#2E4800"/>
</svg>
