<svg width="60" height="60" viewBox="0 0 60 60" fill="none" xmlns="http://www.w3.org/2000/svg">
<path d="M35.3316 22.4418H22.0547C17.6597 22.4418 14.0859 18.868 14.0859 14.473C14.0859 10.078 17.6597 6.5043 22.0547 6.5043C22.5009 6.5043 22.8628 6.86805 22.8628 7.31242C22.8628 7.7568 22.4991 8.12055 22.0547 8.12055C18.5616 8.12055 15.7153 10.9687 15.7153 14.4599C15.7153 17.9512 18.5634 20.7993 22.0547 20.7993H35.3316C40.5103 20.7993 44.7291 16.5805 44.7291 11.3999C44.7291 6.24367 40.5459 2.03617 35.4009 2.00055C30.8184 2.03617 25.9209 4.97617 25.9209 11.3999C25.9209 11.8443 25.5572 12.208 25.1128 12.208C24.6684 12.208 24.3047 11.8443 24.3047 11.3999C24.3047 4.25055 29.7891 0.466797 35.2847 0.373047C35.3316 0.373047 35.3672 0.373047 35.4141 0.373047C35.4609 0.373047 35.5078 0.373047 35.5547 0.373047C41.5434 0.491172 46.3716 5.38867 46.3716 11.3999C46.3603 17.4824 41.4141 22.4399 35.3334 22.4399L35.3316 22.4418Z" fill="#5E686C"/>
<path d="M35.2036 59.5199H22.2773C17.9892 59.5199 14.4961 56.0267 14.4961 51.7499C14.4961 47.473 17.9892 43.9686 22.2773 43.9686C22.7236 43.9686 23.0855 44.3324 23.0855 44.7767C23.0855 45.2211 22.7217 45.5849 22.2773 45.5849C18.8911 45.5849 16.1255 48.3392 16.1255 51.7367C16.1255 55.123 18.8798 57.8886 22.2773 57.8886H35.2036C40.2436 57.8886 44.333 53.7861 44.333 48.7592C44.333 43.7436 40.2773 39.6655 35.2748 39.6299C30.8217 39.6655 26.0648 42.5249 26.0648 48.7592C26.0648 49.2055 25.7011 49.5674 25.2567 49.5674C24.8123 49.5674 24.4486 49.2036 24.4486 48.7592C24.4486 41.7861 29.8036 38.0942 35.1605 38.0005C35.2073 38.0005 35.243 38.0005 35.2898 38.0005C35.3367 38.0005 35.3836 38.0005 35.4192 38.0005C41.2561 38.1055 45.9773 42.8999 45.9773 48.7592C45.9661 54.6899 41.138 59.518 35.2073 59.518L35.2036 59.5199Z" fill="#5E686C"/>
<path d="M7.5225 48.8324C7.3125 48.8324 7.10063 48.7499 6.94875 48.598C3.84375 45.493 2.0625 40.9574 2.0625 36.1405C2.0625 31.3349 3.84375 26.788 6.94875 23.683L8.6475 21.9842C8.96438 21.6674 9.48 21.6674 9.795 21.9842C10.11 22.3011 10.1119 22.8167 9.795 23.1336L8.09625 24.8324C5.295 27.6336 3.69 31.7586 3.69 36.1405C3.69 40.5224 5.295 44.6361 8.09625 47.4486C8.41313 47.7655 8.41313 48.2811 8.09625 48.598C7.94438 48.7499 7.7325 48.8324 7.5225 48.8324Z" fill="#2E4800"/>
<path d="M9.22219 28.6051C8.77781 28.6051 8.41406 28.2413 8.41406 27.7969V23.3794H4.06594C3.61969 23.3794 3.25781 23.0157 3.25781 22.5713C3.25781 22.1269 3.62156 21.7632 4.06594 21.7632H9.23344C9.44344 21.7632 9.65531 21.8457 9.80719 21.9976C9.95906 22.1494 10.0416 22.3613 10.0416 22.5713V27.7969C10.0303 28.2432 9.66844 28.6051 9.22219 28.6051Z" fill="#2E4800"/>
<path d="M50.577 46.2542C50.3652 46.2542 50.1552 46.1717 50.0033 46.0198C49.6864 45.703 49.6864 45.1873 50.0033 44.8705L51.702 43.1717C57.6195 37.2542 57.6195 26.4842 51.702 20.5667C51.3852 20.2498 51.3852 19.7342 51.702 19.4173C52.0189 19.1005 52.5345 19.1005 52.8514 19.4173C59.367 25.933 59.367 37.8036 52.8514 44.3305L51.1527 46.0292C51.0008 46.1698 50.7889 46.2523 50.5789 46.2523L50.577 46.2542Z" fill="#2E4800"/>
<path d="M50.5777 46.2544C50.3658 46.2544 50.1558 46.1719 50.0039 46.02C49.852 45.8681 49.7695 45.6563 49.7695 45.4463V40.2188C49.7695 39.7725 50.1333 39.4106 50.5777 39.4106C51.022 39.4106 51.3858 39.7744 51.3858 40.2188V44.6363H55.7339C56.1802 44.6363 56.542 45 56.542 45.4444C56.542 45.8888 56.1783 46.2525 55.7339 46.2525H50.5777V46.2544Z" fill="#2E4800"/>
</svg>
