<svg width="60" height="60" viewBox="0 0 60 60" fill="none" xmlns="http://www.w3.org/2000/svg">
<path d="M21.3994 25.77H10.2656C9.82125 25.77 9.46875 26.1225 9.46875 26.5669V45.645C9.46875 46.0913 9.82125 46.4419 10.2656 46.4419H21.3994C21.8456 46.4419 22.1962 46.0894 22.1962 45.645V26.5669C22.1962 26.1206 21.8438 25.77 21.3994 25.77ZM20.6156 44.8481H11.0644V27.3638H20.6044V44.8481H20.6156Z" fill="#2E4800"/>
<path d="M59.4722 19.1138C59.4722 19.0913 59.4722 19.0669 59.4722 19.0556V7.58252C59.4722 7.13814 59.1197 6.78564 58.6753 6.78564H1.33594C0.891563 6.78564 0.539062 7.13814 0.539062 7.58252V53.4619C0.539062 53.9081 0.891563 54.2588 1.33594 54.2588H58.6866C59.1197 54.2588 59.4834 53.9063 59.4834 53.4619V19.185C59.4722 19.1625 59.4722 19.1363 59.4722 19.1138ZM2.11969 8.37939H57.8897V18.2588H2.11969V8.37939ZM2.11969 52.6631V19.8506H57.8897V52.6744H2.11969V52.6631Z" fill="#5E686B"/>
<path d="M9.72703 9.9375C7.96828 9.9375 6.55078 11.3681 6.55078 13.1137C6.55078 14.8594 7.97953 16.29 9.72703 16.29C11.4858 16.29 12.9033 14.8594 12.9033 13.1137C12.9145 11.3681 11.4858 9.9375 9.72703 9.9375ZM9.72703 14.7075C8.84766 14.7075 8.13328 13.9931 8.13328 13.1137C8.13328 12.2344 8.86078 11.5312 9.72703 11.5312C10.6064 11.5312 11.3208 12.2456 11.3208 13.125C11.3208 14.0044 10.6064 14.7075 9.72703 14.7075Z" fill="#5E686B"/>
<path d="M18.7388 9.9375C16.98 9.9375 15.5625 11.3681 15.5625 13.1137C15.5625 14.8594 16.9913 16.29 18.7388 16.29C20.4863 16.29 21.915 14.8594 21.915 13.1137C21.9262 11.3681 20.4975 9.9375 18.7388 9.9375ZM18.7388 14.7075C17.8594 14.7075 17.145 13.9931 17.145 13.1137C17.145 12.2344 17.8594 11.52 18.7388 11.52C19.6181 11.52 20.3325 12.2344 20.3325 13.1137C20.3325 13.9931 19.6181 14.7075 18.7388 14.7075Z" fill="#5E686B"/>
<path d="M27.7505 9.9375C25.9917 9.9375 24.5742 11.3681 24.5742 13.1137C24.5742 14.8594 26.003 16.29 27.7505 16.29C29.498 16.29 30.938 14.8725 30.938 13.125C30.938 11.3662 29.5092 9.9375 27.7505 9.9375ZM27.7505 14.7075C26.8711 14.7075 26.1567 13.9931 26.1567 13.1137C26.1567 12.2344 26.8711 11.52 27.7505 11.52C28.6298 11.52 29.3442 12.2344 29.3442 13.1137C29.3442 13.9931 28.6298 14.7075 27.7505 14.7075Z" fill="#5E686B"/>
<path d="M49.0898 32.25H30.0117C29.5655 32.25 29.2148 32.6025 29.2148 33.0469C29.2148 33.4912 29.5673 33.8437 30.0117 33.8437H49.0898C49.5361 33.8437 49.8867 33.4912 49.8867 33.0469C49.8867 32.6137 49.523 32.25 49.0898 32.25Z" fill="#2E4800"/>
<path d="M49.0898 38.415H30.0117C29.5655 38.415 29.2148 38.7675 29.2148 39.2119C29.2148 39.645 29.5673 40.0088 30.0117 40.0088H49.0898C49.5361 40.0088 49.8867 39.6563 49.8867 39.2119C49.8867 38.7675 49.523 38.415 49.0898 38.415Z" fill="#2E4800"/>
<path d="M44.46 44.5894H30.1406C29.6944 44.5894 29.3438 44.9419 29.3438 45.3862C29.3438 45.8306 29.6963 46.1831 30.1406 46.1831H44.4487C44.895 46.1831 45.2456 45.8306 45.2456 45.3862C45.2456 44.9531 44.8931 44.5894 44.46 44.5894Z" fill="#2E4800"/>
</svg>
