<svg width="60" height="60" viewBox="0 0 60 60" fill="none" xmlns="http://www.w3.org/2000/svg">
<path d="M22.4892 38.9288C20.7192 38.9288 19.2773 37.4869 19.2773 35.7188C19.2773 33.9507 20.7192 32.5088 22.4892 32.5088C24.2592 32.5088 25.7011 33.9507 25.7011 35.7188C25.7011 37.4869 24.2592 38.9288 22.4892 38.9288ZM22.4892 34.1138C21.5986 34.1138 20.8842 34.8282 20.8842 35.7188C20.8842 36.6094 21.6098 37.3238 22.4892 37.3238C23.3798 37.3238 24.0942 36.5982 24.0942 35.7188C24.0942 34.8282 23.3798 34.1138 22.4892 34.1138Z" fill="#5E686C"/>
<path d="M38.5186 38.9288C36.7486 38.9288 35.3086 37.4869 35.3086 35.7188C35.3086 33.9507 36.7505 32.5088 38.5186 32.5088C40.2886 32.5088 41.7286 33.9507 41.7286 35.7188C41.7286 37.4869 40.2867 38.9288 38.5186 38.9288ZM38.5186 34.1138C37.628 34.1138 36.9136 34.8282 36.9136 35.7188C36.9136 36.6094 37.6392 37.3238 38.5186 37.3238C39.4092 37.3238 40.1236 36.5982 40.1236 35.7188C40.1236 34.8282 39.398 34.1138 38.5186 34.1138Z" fill="#5E686C"/>
<path d="M34.6762 53.9775C32.4619 53.9775 30.6562 52.1737 30.6562 49.9575C30.6562 47.7412 32.46 45.9375 34.6762 45.9375C36.8906 45.9375 38.6962 47.7412 38.6962 49.9575C38.685 52.185 36.8925 53.9775 34.6762 53.9775ZM34.6762 47.5556C33.3525 47.5556 32.2612 48.6337 32.2612 49.9706C32.2612 51.2944 33.3394 52.3856 34.6762 52.3856C36 52.3856 37.0912 51.3075 37.0912 49.9706C37.08 48.6356 36.0019 47.5556 34.6762 47.5556Z" fill="#2E4800"/>
<path d="M46.5588 28.8392C31.4651 28.8392 23.0163 19.1942 22.6413 18.7611C22.3601 18.3973 22.1613 18.4329 21.9495 18.7254L13.3357 28.5223C13.0432 28.8504 12.5388 28.8861 12.1995 28.5917C11.8713 28.2992 11.8357 27.7948 12.1301 27.4554L20.697 17.7054C21.3888 16.7792 23.1101 16.7323 23.8845 17.7523C23.9426 17.8104 32.8732 27.9711 48.2707 27.1854C48.7507 27.1629 49.092 27.5023 49.1145 27.9467C49.137 28.3911 48.7976 28.7679 48.3532 28.7904C47.7551 28.8261 47.1457 28.8373 46.5607 28.8373L46.5588 28.8392Z" fill="#5E686C"/>
<path d="M30.6923 59.6363C19.3486 59.6363 11.1211 51.0938 11.1211 39.3169C11.1211 38.8707 11.4848 38.5088 11.9292 38.5088C12.3736 38.5088 12.7373 38.8725 12.7373 39.3169C12.7373 50.1563 20.2955 58.0313 30.7017 58.0313C41.108 58.0313 48.6661 50.4375 48.6661 39.9732C48.6661 39.5269 49.0298 39.165 49.4742 39.165C49.9186 39.165 50.2823 39.5288 50.2823 39.9732C50.2598 51.1875 41.8448 59.6382 30.6886 59.6382L30.6923 59.6363Z" fill="#5E686C"/>
<path d="M53.9786 40.7231H50.7686C49.023 40.7231 47.5586 39.2456 47.5586 37.5131V26.2631C47.5586 24.5175 49.0361 23.0513 50.7686 23.0513H53.9786C55.7242 23.0513 57.1886 24.5269 57.1886 26.2631V37.5131C57.1886 39.2588 55.7111 40.7231 53.9786 40.7231ZM50.7667 24.6563C49.923 24.6563 49.1617 25.4175 49.1617 26.2613V37.5113C49.1617 38.355 49.923 39.1163 50.7667 39.1163H53.9767C54.8205 39.1163 55.5817 38.355 55.5817 37.5113V26.2613C55.5817 25.4175 54.8205 24.6563 53.9767 24.6563H50.7667Z" fill="#2E4800"/>
<path d="M38.0737 50.7432C37.6275 50.7432 37.2656 50.3795 37.2656 49.9351C37.2656 49.4907 37.6294 49.127 38.0737 49.127H41.0494C41.3062 49.1045 48.6544 48.4707 48.6544 39.5064C48.6544 39.0601 49.0181 38.6982 49.4625 38.6982C49.9069 38.6982 50.2706 39.062 50.2706 39.5064C50.2706 50.0064 41.2012 50.7207 41.1075 50.7339L38.0719 50.7451L38.0737 50.7432Z" fill="#2E4800"/>
<path d="M10.3125 40.7813H7.07813C5.3325 40.7813 3.84375 39.3038 3.84375 37.5469V26.2275C3.84375 24.4819 5.32125 22.9932 7.07813 22.9932H8.05125C8.13375 10.5019 18.3281 0.352539 30.8569 0.352539C43.4194 0.352539 53.6381 10.875 53.6381 23.8013C53.6381 24.2475 53.2744 24.6094 52.83 24.6094C52.3856 24.6094 52.0219 24.2457 52.0219 23.8013C52.0219 11.7544 42.5175 1.95754 30.8456 1.95754C19.2206 1.95754 9.74062 11.3794 9.65812 23.0044H10.3144C12.06 23.0044 13.5487 24.48 13.5487 26.2388V37.56C13.5375 39.3057 12.06 40.7832 10.3144 40.7832L10.3125 40.7813ZM7.07813 24.6094C6.23438 24.6094 5.46 25.3819 5.46 26.2275V37.5469C5.46 38.3907 6.23438 39.1763 7.07625 39.1763H10.3106C11.1544 39.1763 11.94 38.4019 11.94 37.5469V26.2275C11.94 25.3838 11.1675 24.6094 10.3106 24.6094H7.07625H7.07813Z" fill="#2E4800"/>
</svg>
