<svg width="60" height="60" viewBox="0 0 60 60" fill="none" xmlns="http://www.w3.org/2000/svg">
<path d="M30.105 10.9106C25.2881 10.9106 21.375 14.8256 21.375 19.6406C21.375 24.4556 25.29 28.3706 30.105 28.3706C34.9219 28.3706 38.835 24.4556 38.835 19.6406C38.835 14.8256 34.9219 10.9106 30.105 10.9106ZM30.105 27.0113C26.0269 27.0113 22.7213 23.6944 22.7213 19.6275C22.7213 15.5606 26.0381 12.2438 30.105 12.2438C34.1719 12.2438 37.4888 15.5606 37.4888 19.6275C37.4888 23.6944 34.1719 27.0113 30.105 27.0113Z" fill="#2E4800"/>
<path d="M30.105 32.8481C25.2881 32.8481 21.375 36.7613 21.375 41.5781C21.375 46.395 25.29 50.3081 30.105 50.3081C34.9219 50.3081 38.835 46.395 38.835 41.5781C38.835 36.7613 34.9219 32.8481 30.105 32.8481ZM30.105 48.9488C26.0269 48.9488 22.7213 45.6319 22.7213 41.565C22.7213 37.4981 26.0381 34.1813 30.105 34.1813C34.1719 34.1813 37.4888 37.4981 37.4888 41.565C37.4888 45.6431 34.1719 48.9488 30.105 48.9488Z" fill="#5E686B"/>
<path d="M44.2153 28.9219H49.6884C49.9116 28.9219 50.1103 28.8169 50.2397 28.6407L59.6372 15.3169C59.7197 15.1988 59.7666 15.0713 59.7666 14.9307V12.5757C59.7666 12.2007 59.4609 11.9082 59.0991 11.9082H44.2153C44.1797 11.9082 44.1441 11.9082 44.0972 11.9194V9.44631C44.0972 7.34818 42.3853 5.63818 40.2891 5.63818H19.9209C17.8228 5.63818 16.1128 7.35006 16.1128 9.44631V11.9082H1.11281C0.737813 11.9082 0.445312 12.2119 0.445312 12.5757V14.9307C0.445312 15.0713 0.492188 15.2007 0.563438 15.3169L9.96281 28.6407C10.0922 28.8169 10.2909 28.9219 10.5141 28.9219H16.1147V33.8551C16.0791 33.8438 16.0453 33.8438 15.9966 33.8438H1.11281C0.737813 33.8438 0.445312 34.1494 0.445312 34.5113V36.8663C0.445312 37.0069 0.492188 37.1363 0.563438 37.2526L9.96281 50.5763C10.0922 50.7526 10.2909 50.8576 10.5141 50.8576H15.9984C16.0341 50.8576 16.0678 50.8576 16.1166 50.8463V51.7482C16.1166 53.8463 17.8266 55.5563 19.9247 55.5563H40.2928C42.3909 55.5563 44.1009 53.8444 44.1009 51.7482V50.8463C44.1366 50.8576 44.1722 50.8576 44.2191 50.8576H49.6922C49.9153 50.8576 50.1141 50.7526 50.2434 50.5763L59.6409 37.2526C59.7234 37.1344 59.7703 37.0069 59.7703 36.8663V34.5113C59.7703 34.1363 59.4647 33.8438 59.1028 33.8438H44.2191C44.1834 33.8438 44.1478 33.8438 44.1009 33.8551V28.9107C44.1366 28.9219 44.1722 28.9219 44.2191 28.9219H44.2153ZM10.8647 27.5869L1.79344 14.7207V13.2563H16.1259V27.5888L10.8647 27.5869ZM16.0078 49.5113H10.8628L1.79156 36.6563V35.1919H16.0059C16.0416 35.1919 16.0753 35.1919 16.1241 35.1807V49.5244C16.0772 49.5244 16.0416 49.5132 16.0059 49.5132L16.0078 49.5113ZM42.7509 51.7501C42.7509 53.1094 41.6503 54.2119 40.2891 54.2119H19.9209C18.5616 54.2119 17.4591 53.1113 17.4591 51.7501V12.5869V9.44631C17.4591 8.08693 18.5616 6.98443 19.9209 6.98443H40.2891C41.6484 6.98443 42.7509 8.08693 42.7509 9.44631V51.7501ZM44.2153 13.2544H58.4297V14.7188L49.3472 27.5851H44.2134C44.1778 27.5851 44.1422 27.5851 44.0953 27.5963V13.2413C44.1309 13.2526 44.1666 13.2526 44.2134 13.2526L44.2153 13.2544ZM44.2153 35.1919H58.4297V36.6563L49.3472 49.5113H44.2134C44.1778 49.5113 44.1422 49.5113 44.0953 49.5226V35.1788C44.1309 35.1901 44.1666 35.1901 44.2134 35.1901L44.2153 35.1919Z" fill="#5E686B"/>
<path d="M30.1045 16.2769C28.252 16.2769 26.7539 17.7881 26.7539 19.6275C26.7539 21.4669 28.2539 22.9781 30.1045 22.9781C31.957 22.9781 33.457 21.4669 33.457 19.6275C33.457 17.7881 31.957 16.2769 30.1045 16.2769ZM30.1045 21.645C28.9908 21.645 28.0889 20.7431 28.0889 19.6294C28.0889 18.5156 28.9908 17.6137 30.1045 17.6137C31.2183 17.6137 32.1202 18.5156 32.1202 19.6294C32.1202 20.7431 31.2183 21.645 30.1045 21.645Z" fill="#2E4800"/>
<path d="M30.1045 38.2144C28.252 38.2144 26.7539 39.7144 26.7539 41.5669C26.7539 43.4194 28.2539 44.9194 30.1045 44.9194C31.957 44.9194 33.457 43.4194 33.457 41.5669C33.4683 39.7144 31.957 38.2144 30.1045 38.2144ZM30.1045 43.5825C28.9908 43.5825 28.0889 42.6806 28.0889 41.5669C28.0889 40.4531 28.9908 39.5512 30.1045 39.5512C31.2183 39.5512 32.1202 40.4531 32.1202 41.5669C32.1202 42.6806 31.2183 43.5825 30.1045 43.5825Z" fill="#5E686B"/>
</svg>
