<svg width="956" height="280" viewBox="0 0 956 280" fill="none" xmlns="http://www.w3.org/2000/svg">
<g opacity="0.6">
<path d="M955.924 29.2702L914.7 29.2702V233.609L944.533 279.448H902.224L879.442 240.789V118.185C877.815 118.185 874.56 117.633 869.136 115.976C863.712 114.32 859.915 113.767 856.66 113.767C838.76 113.767 826.827 124.813 820.318 147.456C818.691 154.635 817.064 166.233 815.979 181.144H787.773C787.773 170.099 785.06 159.053 780.179 146.351C770.957 124.813 756.312 113.767 735.7 113.767C717.8 113.767 704.239 119.29 695.018 129.783C685.797 140.828 681.458 157.949 681.458 181.696C681.458 202.13 687.424 219.25 698.815 232.505C710.206 245.759 725.394 252.387 744.379 252.387C755.77 252.387 767.161 250.178 776.924 245.207C778.551 244.655 780.721 242.998 782.891 241.341L796.451 272.268C791.027 273.925 785.061 275.03 779.094 276.134C766.076 278.895 753.6 280 741.667 280C712.918 280 689.594 271.164 672.236 252.939C654.879 235.266 645.658 210.414 645.658 178.935C645.658 147.456 653.252 123.708 668.982 106.036C684.712 88.9152 705.324 80.0789 730.818 80.0789C746.006 80.0789 759.567 83.9448 771.5 91.1243C783.433 98.3037 792.112 109.349 797.536 123.156C799.164 117.081 801.333 111.558 805.13 106.036C810.012 97.7515 816.521 92.2288 824.115 90.0197C831.709 87.2584 839.303 86.1539 847.982 86.1539C853.948 86.1539 859.372 86.7061 864.254 87.2584C869.136 87.8107 874.018 88.3629 878.357 88.9152V29.2702H631.555V0L927.718 0L955.924 29.2702Z" fill="#F0F0F0"/>
<path d="M955.924 29.2702L914.7 29.2702V233.609L944.533 279.448H902.224L879.442 240.789V118.185C877.815 118.185 874.56 117.633 869.136 115.976C863.712 114.32 859.915 113.767 856.66 113.767C838.76 113.767 826.827 124.813 820.318 147.456C818.691 154.635 817.064 166.233 815.979 181.144H787.773C787.773 170.099 785.06 159.053 780.179 146.351C770.957 124.813 756.312 113.767 735.7 113.767C717.8 113.767 704.239 119.29 695.018 129.783C685.797 140.828 681.458 157.949 681.458 181.696C681.458 202.13 687.424 219.25 698.815 232.505C710.206 245.759 725.394 252.387 744.379 252.387C755.77 252.387 767.161 250.178 776.924 245.207C778.551 244.655 780.721 242.998 782.891 241.341L796.451 272.268C791.027 273.925 785.061 275.03 779.094 276.134C766.076 278.895 753.6 280 741.667 280C712.918 280 689.594 271.164 672.236 252.939C654.879 235.266 645.658 210.414 645.658 178.935C645.658 147.456 653.252 123.708 668.982 106.036C684.712 88.9152 705.324 80.0789 730.818 80.0789C746.006 80.0789 759.567 83.9448 771.5 91.1243C783.433 98.3037 792.112 109.349 797.536 123.156C799.164 117.081 801.333 111.558 805.13 106.036C810.012 97.7515 816.521 92.2288 824.115 90.0197C831.709 87.2584 839.303 86.1539 847.982 86.1539C853.948 86.1539 859.372 86.7061 864.254 87.2584C869.136 87.8107 874.018 88.3629 878.357 88.9152V29.2702H631.555V0L927.718 0L955.924 29.2702Z" fill="url(#paint0_linear_1117_125596)"/>
<path d="M258.736 29.28H216.969L217.512 233.619L246.803 279.457H203.951L179.542 240.799V208.215C168.694 217.051 156.218 223.126 143.2 227.544C129.639 231.962 115.536 234.171 100.348 234.171C72.6848 234.171 50.9878 226.44 34.7151 210.424C18.4424 194.408 10.306 175.079 10.306 151.884C10.306 128.688 17.9 109.359 32.5454 93.3431C49.903 75.6705 73.7696 66.282 105.23 66.282C118.248 66.282 128.012 67.9388 136.148 70.7001C138.318 71.2524 141.573 73.4614 146.454 76.7751L155.676 108.254C151.879 106.598 148.624 104.941 146.454 104.388C138.86 101.627 132.894 99.4181 128.554 98.8658C124.215 98.3135 120.96 97.7613 118.248 97.7613C115.536 97.7613 113.367 97.7613 111.739 97.7613C109.57 97.7613 107.4 97.7613 105.23 97.7613C102.518 97.7613 100.348 97.7613 98.7211 97.7613L156.218 183.915C162.185 182.258 167.609 179.497 172.491 175.631C177.372 171.765 180.085 168.452 180.085 165.69V29.28H0L0 0.00976562L231.615 0.00976563L258.736 29.28ZM132.894 196.617L71.5999 105.493C64.5484 109.359 59.6666 113.225 56.412 116.538C45.5636 127.584 40.6818 139.734 40.6818 153.54C40.6818 165.69 46.6484 177.288 58.0393 187.229C69.9726 197.17 84.0756 202.14 100.348 202.14C110.112 202.14 118.791 201.035 128.012 198.274C129.097 197.722 130.724 197.17 132.894 196.617Z" fill="#F0F0F0"/>
<path d="M258.736 29.28H216.969L217.512 233.619L246.803 279.457H203.951L179.542 240.799V208.215C168.694 217.051 156.218 223.126 143.2 227.544C129.639 231.962 115.536 234.171 100.348 234.171C72.6848 234.171 50.9878 226.44 34.7151 210.424C18.4424 194.408 10.306 175.079 10.306 151.884C10.306 128.688 17.9 109.359 32.5454 93.3431C49.903 75.6705 73.7696 66.282 105.23 66.282C118.248 66.282 128.012 67.9388 136.148 70.7001C138.318 71.2524 141.573 73.4614 146.454 76.7751L155.676 108.254C151.879 106.598 148.624 104.941 146.454 104.388C138.86 101.627 132.894 99.4181 128.554 98.8658C124.215 98.3135 120.96 97.7613 118.248 97.7613C115.536 97.7613 113.367 97.7613 111.739 97.7613C109.57 97.7613 107.4 97.7613 105.23 97.7613C102.518 97.7613 100.348 97.7613 98.7211 97.7613L156.218 183.915C162.185 182.258 167.609 179.497 172.491 175.631C177.372 171.765 180.085 168.452 180.085 165.69V29.28H0L0 0.00976562L231.615 0.00976563L258.736 29.28ZM132.894 196.617L71.5999 105.493C64.5484 109.359 59.6666 113.225 56.412 116.538C45.5636 127.584 40.6818 139.734 40.6818 153.54C40.6818 165.69 46.6484 177.288 58.0393 187.229C69.9726 197.17 84.0756 202.14 100.348 202.14C110.112 202.14 118.791 201.035 128.012 198.274C129.097 197.722 130.724 197.17 132.894 196.617Z" fill="url(#paint1_linear_1117_125596)"/>
<path d="M518.013 29.279H476.246L476.789 233.618L506.079 279.457H462.686L438.277 240.798V208.214C427.428 217.05 414.952 223.125 401.934 227.543C388.374 231.961 374.271 234.171 359.083 234.171C331.419 234.171 309.722 226.439 293.449 210.423C277.177 194.407 269.04 175.078 269.04 151.883C269.04 128.687 276.634 109.358 291.28 93.3421C308.637 75.6695 332.504 66.281 363.965 66.281C376.983 66.281 386.746 67.9378 394.883 70.6991C397.052 71.2514 400.307 73.4605 405.189 76.7741L414.41 108.253C410.613 106.597 407.358 104.94 405.189 104.387C397.595 101.626 391.628 99.4171 387.289 98.8648C382.949 98.3125 379.695 97.7603 376.983 97.7603C374.271 97.7603 372.101 97.7603 370.474 97.7603C368.304 97.7603 366.134 97.7603 363.965 97.7603C361.252 97.7603 358.54 97.7603 357.455 97.7603L414.952 183.914C420.919 182.257 426.343 179.496 431.225 175.63C436.107 171.764 438.819 168.451 438.819 165.689V29.279H258.734V0.00878906L490.349 0.00878906L518.013 29.279ZM392.171 196.616L330.877 105.492C323.825 109.358 318.943 113.224 315.689 116.537C304.84 127.583 299.959 139.733 299.959 153.539C299.959 165.689 305.925 177.287 317.316 187.228C329.249 197.169 343.352 202.139 359.625 202.139C369.389 202.139 378.068 201.034 387.289 198.273C388.374 197.721 390.001 197.169 392.171 196.616Z" fill="#F0F0F0"/>
<path d="M518.013 29.279H476.246L476.789 233.618L506.079 279.457H462.686L438.277 240.798V208.214C427.428 217.05 414.952 223.125 401.934 227.543C388.374 231.961 374.271 234.171 359.083 234.171C331.419 234.171 309.722 226.439 293.449 210.423C277.177 194.407 269.04 175.078 269.04 151.883C269.04 128.687 276.634 109.358 291.28 93.3421C308.637 75.6695 332.504 66.281 363.965 66.281C376.983 66.281 386.746 67.9378 394.883 70.6991C397.052 71.2514 400.307 73.4605 405.189 76.7741L414.41 108.253C410.613 106.597 407.358 104.94 405.189 104.387C397.595 101.626 391.628 99.4171 387.289 98.8648C382.949 98.3125 379.695 97.7603 376.983 97.7603C374.271 97.7603 372.101 97.7603 370.474 97.7603C368.304 97.7603 366.134 97.7603 363.965 97.7603C361.252 97.7603 358.54 97.7603 357.455 97.7603L414.952 183.914C420.919 182.257 426.343 179.496 431.225 175.63C436.107 171.764 438.819 168.451 438.819 165.689V29.279H258.734V0.00878906L490.349 0.00878906L518.013 29.279ZM392.171 196.616L330.877 105.492C323.825 109.358 318.943 113.224 315.689 116.537C304.84 127.583 299.959 139.733 299.959 153.539C299.959 165.689 305.925 177.287 317.316 187.228C329.249 197.169 343.352 202.139 359.625 202.139C369.389 202.139 378.068 201.034 387.289 198.273C388.374 197.721 390.001 197.169 392.171 196.616Z" fill="url(#paint2_linear_1117_125596)"/>
<path d="M631.39 29.279H590.166V233.618L620.542 279.457H578.232L554.908 240.798V29.279H518.023V0.00878906L603.726 0.00878906L631.39 29.279Z" fill="#F0F0F0"/>
<path d="M631.39 29.279H590.166V233.618L620.542 279.457H578.232L554.908 240.798V29.279H518.023V0.00878906L603.726 0.00878906L631.39 29.279Z" fill="url(#paint3_linear_1117_125596)"/>
</g>
<defs>
<linearGradient id="paint0_linear_1117_125596" x1="807.028" y1="-11.6073" x2="807.028" y2="278.461" gradientUnits="userSpaceOnUse">
<stop stop-color="white" stop-opacity="0"/>
<stop offset="0.958362" stop-color="white"/>
</linearGradient>
<linearGradient id="paint1_linear_1117_125596" x1="139.968" y1="-11.5747" x2="139.968" y2="277.921" gradientUnits="userSpaceOnUse">
<stop stop-color="white" stop-opacity="0"/>
<stop offset="0.958362" stop-color="white"/>
</linearGradient>
<linearGradient id="paint2_linear_1117_125596" x1="398.996" y1="-11.5757" x2="398.996" y2="277.92" gradientUnits="userSpaceOnUse">
<stop stop-color="white" stop-opacity="0"/>
<stop offset="0.958362" stop-color="white"/>
</linearGradient>
<linearGradient id="paint3_linear_1117_125596" x1="579.351" y1="-11.5757" x2="579.351" y2="277.92" gradientUnits="userSpaceOnUse">
<stop stop-color="white" stop-opacity="0"/>
<stop offset="0.958362" stop-color="white"/>
</linearGradient>
</defs>
</svg>
