<?xml version="1.0" encoding="utf-8"?>
<!-- Generator: Adobe Illustrator 22.0.1, SVG Export Plug-In . SVG Version: 6.00 Build 0)  -->
<svg version="1.1" id="Layer_1" xmlns="http://www.w3.org/2000/svg" xmlns:xlink="http://www.w3.org/1999/xlink" x="0px" y="0px"
	 viewBox="0 0 225.4 75.3" style="enable-background:new 0 0 225.4 75.3;" xml:space="preserve">
<style type="text/css">
	.st0{display:none;}
	.st1{display:inline;}
	.st2{fill:#15212A;stroke:#FFFFFF;stroke-linecap:round;stroke-linejoin:round;stroke-miterlimit:10;}
	.st3{fill:#FFFFFF;}
	.st4{fill:#EE5586;}
</style>
<g id="Layer_2_2_" class="st0">
	<g id="Layer_2_1_" class="st1">
		<rect x="-2.5" y="-22.4" class="st2" width="227.4" height="98.9"/>
	</g>
</g>
<g id="Layer_1_1_">
	<path class="st3" d="M225,66.8v5.7H0v-5.7H225z"/>
	<g>
		<circle id="svg-ico" class="st4" cx="5.2" cy="69.6" r="4"/>
		
			<animateMotion  accumulate="none" additive="replace" begin="0s" calcMode="paced" dur="6s" fill="remove" path="M210,0 0 0 210,0" repeatCount="indefinite" restart="always">
			</animateMotion>
	</g>
	<g>
		<path class="st3" d="M64.4,8.7h-7.7l0.1,37l5.4,8.3h-7.9l-4.5-7v-5.9c-2,1.6-4.3,2.7-6.7,3.5c-2.5,0.8-5.1,1.2-7.9,1.2
			c-5.1,0-9.1-1.4-12.1-4.3c-3-2.9-4.5-6.4-4.5-10.6s1.4-7.7,4.1-10.6c3.2-3.2,7.6-4.9,13.4-4.9c2.4,0,4.2,0.3,5.7,0.8
			c0.4,0.1,1,0.5,1.9,1.1l1.7,5.7c-0.7-0.3-1.3-0.6-1.7-0.7c-1.4-0.5-2.5-0.9-3.3-1s-1.4-0.2-1.9-0.2s-0.9,0-1.2,0
			c-0.4,0-0.8,0-1.2,0c-0.5,0-0.9,0-1.2,0l10.6,15.6c1.1-0.3,2.1-0.8,3-1.5s1.4-1.3,1.4-1.8V8.7H16.7V3.4h42.7L64.4,8.7z M41.2,39
			L29.9,22.5c-1.3,0.7-2.2,1.4-2.8,2c-2,2-2.9,4.2-2.9,6.7c0,2.2,1.1,4.3,3.2,6.1c2.2,1.8,4.8,2.7,7.8,2.7c1.8,0,3.4-0.2,5.1-0.7
			C40.5,39.2,40.8,39.1,41.2,39z"/>
		<path class="st3" d="M112.2,8.7h-7.7l0.1,37L110,54h-8l-4.5-7v-5.9c-2,1.6-4.3,2.7-6.7,3.5c-2.5,0.8-5.1,1.2-7.9,1.2
			c-5.1,0-9.1-1.4-12.1-4.3c-3-2.9-4.5-6.4-4.5-10.6s1.4-7.7,4.1-10.6c3.2-3.2,7.6-4.9,13.4-4.9c2.4,0,4.2,0.3,5.7,0.8
			c0.4,0.1,1,0.5,1.9,1.1l1.7,5.7c-0.7-0.3-1.3-0.6-1.7-0.7c-1.4-0.5-2.5-0.9-3.3-1s-1.4-0.2-1.9-0.2s-0.9,0-1.2,0
			c-0.4,0-0.8,0-1.2,0c-0.5,0-1,0-1.2,0l10.6,15.6c1.1-0.3,2.1-0.8,3-1.5s1.4-1.3,1.4-1.8V8.7H64.4V3.4h42.7L112.2,8.7z M89,39
			L77.7,22.5c-1.3,0.7-2.2,1.4-2.8,2c-2,2-2.9,4.2-2.9,6.7c0,2.2,1.1,4.3,3.2,6.1C77.4,39.1,80,40,83,40c1.8,0,3.4-0.2,5.1-0.7
			C88.3,39.2,88.6,39.1,89,39z"/>
		<path class="st3" d="M133.1,8.7h-7.6v37l5.6,8.3h-7.8l-4.3-7V8.7h-6.8V3.4H128L133.1,8.7z"/>
		<path class="st3" d="M192.8,8.7h-7.6v37l5.5,8.3h-7.8l-4.2-7V24.8c-0.3,0-0.9-0.1-1.9-0.4s-1.7-0.4-2.3-0.4c-3.3,0-5.5,2-6.7,6.1
			c-0.3,1.3-0.6,3.4-0.8,6.1h-5.2c0-2-0.5-4-1.4-6.3c-1.7-3.9-4.4-5.9-8.2-5.9c-3.3,0-5.8,1-7.5,2.9c-1.7,2-2.5,5.1-2.5,9.4
			c0,3.7,1.1,6.8,3.2,9.2c2.1,2.4,4.9,3.6,8.4,3.6c2.1,0,4.2-0.4,6-1.3c0.3-0.1,0.7-0.4,1.1-0.7l2.5,5.6c-1,0.3-2.1,0.5-3.2,0.7
			c-2.4,0.5-4.7,0.7-6.9,0.7c-5.3,0-9.6-1.6-12.8-4.9c-3.2-3.2-4.9-7.7-4.9-13.4s1.4-10,4.3-13.2c2.9-3.1,6.7-4.7,11.4-4.7
			c2.8,0,5.3,0.7,7.5,2s3.8,3.3,4.8,5.8c0.3-1.1,0.7-2.1,1.4-3.1c0.9-1.5,2.1-2.5,3.5-2.9c1.4-0.5,2.8-0.7,4.4-0.7
			c1.1,0,2.1,0.1,3,0.2s1.8,0.2,2.6,0.3V8.7H133V3.4h54.6L192.8,8.7z"/>
	</g>
</g>
</svg>
