<?xml version="1.0" encoding="utf-8"?>
<!-- Generator: Adobe Illustrator 22.0.1, SVG Export Plug-In . SVG Version: 6.00 Build 0)  -->
<svg version="1.1" id="Layer_1" xmlns="http://www.w3.org/2000/svg" xmlns:xlink="http://www.w3.org/1999/xlink" x="0px" y="0px"
	 viewBox="0 0 121.9 56.7" style="enable-background:new 0 0 121.9 56.7;" xml:space="preserve">
<g>
	<path d="M32.8,14.4h-5.4l0.1,25.9l3.7,5.8h-5.5l-3.1-4.9V37c-1.4,1.1-3,1.9-4.7,2.4c-1.7,0.5-3.6,0.8-5.5,0.8c-3.5,0-6.4-1-8.4-3
		c-2.1-2-3.1-4.5-3.1-7.4s1-5.4,2.9-7.4C5.9,20.2,9,19,13,19c1.7,0,3,0.2,4,0.6c0.3,0.1,0.7,0.4,1.3,0.8l1.2,4
		c-0.5-0.2-0.9-0.4-1.2-0.5c-1-0.4-1.8-0.6-2.3-0.7c-0.5-0.1-1-0.1-1.4-0.1c-0.4,0-0.6,0-0.8,0c-0.3,0-0.6,0-0.9,0
		c-0.4,0-0.7,0-0.9,0L19.5,34c0.8-0.2,1.5-0.5,2.1-1c0.7-0.5,1-0.9,1-1.2V14.4H-0.5v-3.7h29.8L32.8,14.4z M16.6,35.5L8.7,24
		c-0.9,0.5-1.6,1-2,1.4c-1.4,1.4-2,2.9-2,4.7c0,1.6,0.8,3,2.3,4.2c1.5,1.3,3.3,1.9,5.4,1.9c1.2,0,2.4-0.2,3.5-0.5
		C16.1,35.7,16.3,35.6,16.6,35.5z"/>
	<path d="M66.1,14.4h-5.4l0.1,25.9l3.7,5.8h-5.5L56,41.1V37c-1.4,1.1-3,1.9-4.7,2.4c-1.7,0.5-3.6,0.8-5.5,0.8c-3.5,0-6.4-1-8.4-3
		c-2.1-2-3.1-4.5-3.1-7.4s1-5.4,2.9-7.4c2.2-2.3,5.3-3.4,9.3-3.4c1.7,0,3,0.2,4,0.6c0.3,0.1,0.7,0.4,1.3,0.8l1.2,4
		c-0.5-0.2-0.9-0.4-1.2-0.5c-1-0.4-1.8-0.6-2.3-0.7c-0.5-0.1-1-0.1-1.4-0.1c-0.4,0-0.6,0-0.8,0c-0.3,0-0.6,0-0.9,0
		c-0.4,0-0.7,0-0.9,0L52.9,34c0.8-0.2,1.5-0.5,2.1-1c0.7-0.5,1-0.9,1-1.2V14.4H32.8v-3.7h29.8L66.1,14.4z M50,35.5L42,24
		c-0.9,0.5-1.6,1-2,1.4c-1.4,1.4-2,2.9-2,4.7c0,1.6,0.8,3,2.3,4.2c1.5,1.3,3.3,1.9,5.4,1.9c1.2,0,2.4-0.2,3.5-0.5
		C49.4,35.7,49.7,35.6,50,35.5z"/>
	<path d="M80.8,14.4h-5.3v25.9l3.9,5.8h-5.4l-3-4.9V14.4h-4.7v-3.7h11.1L80.8,14.4z"/>
	<path d="M122.4,14.4h-5.3v25.9L121,46h-5.4l-3-4.9V25.6c-0.2,0-0.6-0.1-1.3-0.3c-0.7-0.2-1.2-0.3-1.6-0.3c-2.3,0-3.9,1.4-4.7,4.2
		c-0.2,0.9-0.4,2.4-0.6,4.2h-3.6c0-1.4-0.3-2.8-1-4.4c-1.2-2.7-3.1-4.1-5.7-4.1c-2.3,0-4.1,0.7-5.2,2c-1.2,1.4-1.8,3.6-1.8,6.6
		c0,2.6,0.7,4.7,2.2,6.4s3.4,2.5,5.9,2.5c1.5,0,2.9-0.3,4.2-0.9c0.2-0.1,0.5-0.3,0.8-0.5l1.8,3.9c-0.7,0.2-1.5,0.4-2.3,0.5
		C98,45.8,96.4,46,94.8,46c-3.7,0-6.7-1.1-9-3.4c-2.3-2.3-3.4-5.4-3.4-9.3s1-7,3-9.2c2-2.2,4.7-3.2,8-3.2c2,0,3.7,0.5,5.3,1.4
		c1.5,0.9,2.6,2.3,3.4,4c0.2-0.8,0.5-1.5,1-2.2c0.7-1,1.5-1.7,2.4-2c1-0.3,2-0.5,3.1-0.5c0.8,0,1.5,0,2.1,0.1s1.3,0.2,1.8,0.2v-7.6
		H80.8v-3.7h38.2L122.4,14.4z"/>
</g>
</svg>
