<svg width="70" height="70" viewBox="0 0 70 70" fill="none" xmlns="http://www.w3.org/2000/svg">
<path d="M33.0064 65.7891C32.5273 65.7891 32.0352 65.6797 31.543 65.4741C30.4077 64.9534 27.2095 63.6278 25.6236 63.4637C23.3945 63.245 20.168 63.1225 16.0117 63.1225C10.2411 63.1225 4.67828 63.3413 4.62359 63.3544C2.13641 63.3544 0.316406 61.5234 0.316406 59.1697V8.52906C0.316406 6.16437 2.23047 4.23718 4.59516 4.23718H31.6392C34.0039 4.23718 35.918 6.16437 35.918 8.52906V62.5472C35.918 64.4613 34.7148 65.7869 33.0064 65.7869V65.7891ZM16.0117 61.3047C20.2227 61.3047 23.517 61.4272 25.8008 61.6459C28.0145 61.8647 32.103 63.7109 32.267 63.7919C32.5142 63.8881 32.7592 63.9428 32.9911 63.9428C33.9623 63.9428 34.0717 62.9716 34.0717 62.5494V8.53125C34.0717 7.17718 32.978 6.07031 31.6239 6.07031H4.59516C3.24109 6.07031 2.14734 7.17718 2.14734 8.53125V59.1719C2.14734 60.4844 3.17328 61.5234 4.47266 61.5234C4.61047 61.5234 10.2148 61.3047 16.0117 61.3047Z" fill="#5E686C"/>
<path d="M36.9805 65.776C36.392 65.776 35.8605 65.625 35.3945 65.3122C34.5611 64.7522 34.082 63.7547 34.082 62.5516H35.9152C35.9152 63.1247 36.0923 63.5622 36.4205 63.7831C36.7486 64.0041 37.2145 63.9888 37.7461 63.77C37.8839 63.7022 41.9702 61.856 44.1861 61.6372C51.0898 60.9394 64.8448 61.4994 65.4333 61.5147C66.0633 61.541 66.678 61.3091 67.1286 60.8716C67.5792 60.4341 67.8395 59.8194 67.8395 59.1763V8.53565C67.8395 7.18159 66.7458 6.07471 65.3917 6.07471H38.363C37.0089 6.07471 35.9152 7.18159 35.9152 8.53565H34.082C34.082 6.17096 35.9961 4.24377 38.3608 4.24377H65.4048C67.7695 4.24377 69.6836 6.17096 69.6836 8.53565V59.1763C69.6836 60.3378 69.233 61.4053 68.4127 62.1972C67.5923 62.976 66.5117 63.4003 65.3786 63.3588C65.2277 63.3588 51.1598 62.7988 44.3786 63.4681C42.7927 63.6322 39.5792 64.9578 38.4855 65.4653C37.9648 65.6841 37.4595 65.7803 36.9805 65.7803V65.776Z" fill="#A0CE4E"/>
</svg>
