<svg width="86" height="86" viewBox="0 0 86 86" fill="none" xmlns="http://www.w3.org/2000/svg">
<g clip-path="url(#clip0_1232_287801)">
<path d="M34.4501 15.5557C33.8105 15.5557 33.273 15.0693 33.2246 14.4135C32.7194 7.54426 26.186 2.16926 18.3251 2.16926C17.6371 2.16926 17.0996 1.61564 17.0996 0.943762C17.0996 0.271887 17.6532 -0.281738 18.3251 -0.281738C27.4626 -0.281738 35.087 6.10107 35.6756 14.2469C35.7267 14.9188 35.2214 15.5234 34.5334 15.5745C34.5173 15.5584 34.4824 15.5557 34.4501 15.5557Z" fill="#5E686C"/>
<path d="M9.15317 31.2803C8.8683 31.2803 8.54848 31.2131 8.27973 31.0626C7.72611 30.7589 7.39017 30.1891 7.37405 29.5683L6.97092 27.0474C3.14123 24.0912 0.958984 19.8234 0.958984 15.2735C0.958984 6.68963 8.76886 -0.279053 18.3605 -0.279053C19.0485 -0.279053 19.586 0.274572 19.586 0.946447C19.586 1.63445 19.0324 2.17195 18.3605 2.17195C10.1287 2.17195 3.4288 8.03339 3.4288 15.2574C3.4288 19.1704 5.40948 22.8334 8.83873 25.3355C9.10748 25.5209 9.2768 25.8219 9.32517 26.1418L9.69605 28.4933L12.0476 27.4855C12.3325 27.3673 12.6362 27.3511 12.9372 27.4533C15.8101 28.4288 19.019 28.6116 21.9725 27.9585C22.6283 27.808 23.3002 28.2273 23.4507 28.8991C23.6012 29.571 23.1819 30.2268 22.51 30.3773C19.285 31.0814 15.7752 30.9497 12.5985 29.958L9.89492 31.1163C9.67723 31.2158 9.42461 31.2856 9.15586 31.2856L9.15317 31.2803Z" fill="#5E686C"/>
<path d="M70.4642 68.3838C70.061 68.3838 69.6579 68.2656 69.3059 68.064L63.7132 65.6802C60.0501 66.8735 56.2204 67.4782 52.3235 67.4782C34.1319 67.4782 19.3184 54.2933 19.3184 38.0823C19.3184 21.8713 34.1157 8.6864 52.3235 8.6864C70.5314 8.6864 85.3287 21.8713 85.3287 38.0823C85.3287 46.7844 81.0637 54.9625 73.587 60.574L72.6814 66.336C72.6814 67.3948 71.6897 68.3838 70.4642 68.3838ZM63.7777 63.1244C63.947 63.1244 64.1136 63.1567 64.2641 63.2265L70.2949 65.8119L71.2355 59.6978C71.2865 59.378 71.4693 59.077 71.7219 58.8916C78.8089 53.7504 82.8589 46.1582 82.8589 38.0957C82.8589 23.2473 69.1527 11.1697 52.3209 11.1697C35.489 11.1697 21.7828 23.2473 21.7828 38.0957C21.7828 52.9442 35.489 65.0218 52.3209 65.0218C56.1183 65.0218 59.8297 64.401 63.3557 63.2077C63.5062 63.1405 63.6406 63.1244 63.775 63.1244H63.7777Z" fill="#A0CE4E"/>
<path d="M66.0123 31.2802H37.1728C36.4848 31.2802 35.9473 30.7266 35.9473 30.0547C35.9473 29.3828 36.5009 28.8292 37.1728 28.8292H66.0123C66.7003 28.8292 67.2378 29.3828 67.2378 30.0547C67.2378 30.7266 66.7003 31.2802 66.0123 31.2802Z" fill="#5E686C"/>
<path d="M66.0123 39.8614H37.1728C36.4848 39.8614 35.9473 39.3078 35.9473 38.6359C35.9473 37.964 36.5009 37.4104 37.1728 37.4104H66.0123C66.7003 37.4104 67.2378 37.964 67.2378 38.6359C67.2378 39.3078 66.7003 39.8614 66.0123 39.8614Z" fill="#5E686C"/>
<path d="M66.0123 48.2786H37.1728C36.4848 48.2786 35.9473 47.725 35.9473 47.0531C35.9473 46.3651 36.5009 45.8276 37.1728 45.8276H66.0123C66.7003 45.8276 67.2378 46.3813 67.2378 47.0531C67.254 47.725 66.7003 48.2786 66.0123 48.2786Z" fill="#5E686C"/>
</g>
<defs>
<clipPath id="clip0_1232_287801">
<rect width="86" height="86" fill="white"/>
</clipPath>
</defs>
</svg>
