<svg width="70" height="70" viewBox="0 0 70 70" fill="none" xmlns="http://www.w3.org/2000/svg">
<path d="M59.2003 11.2919C53.5128 5.60441 45.9659 2.10441 37.9684 1.44816C37.4478 1.4066 37.0103 1.78941 36.9709 2.29472C36.9316 2.80003 37.3122 3.25285 37.8175 3.29222C45.3775 3.90691 52.5153 7.2166 57.8878 12.6022C70.4375 25.1541 70.4375 45.5657 57.8878 58.1153C45.3381 70.665 24.9244 70.6672 12.3747 58.1153C6.30437 52.045 2.95531 43.9644 2.95531 35.3653C2.95531 26.7663 6.30437 18.6857 12.3747 12.6153C17.7756 7.21441 24.9266 3.90691 32.5128 3.30535C33.0181 3.26378 33.4009 2.82628 33.3594 2.30785C33.3178 1.80253 32.8934 1.41972 32.3619 1.46128C24.3359 2.10441 16.7759 5.59128 11.06 11.305C4.63313 17.7319 1.09375 26.2763 1.09375 35.3675C1.09375 44.4588 4.63531 53.0053 11.06 59.43C17.6903 66.0603 26.4141 69.3832 35.1225 69.3832C43.8309 69.3832 52.5547 66.0603 59.185 59.43C72.4609 46.1541 72.4631 24.5657 59.2003 11.2919Z" fill="#5E686B"/>
<path d="M38.4198 35.5731C34.1127 39.8803 32.3911 40.4119 31.9798 40.4688L31.7327 40.2216C30.4748 38.9506 29.1755 37.6381 27.0558 37.6381C25.4414 37.6381 23.652 38.4716 21.423 40.25C19.4673 41.8228 18.483 43.4219 18.4152 45.1172C18.3605 46.3488 18.798 47.4009 19.428 48.3306C18.0345 49.2188 15.6414 51.0913 14.6702 54.0313C14.5061 54.5103 14.7664 55.0419 15.2586 55.2081C15.3548 55.2344 15.4511 55.2497 15.5452 55.2497C15.928 55.2497 16.2977 55.0025 16.4202 54.6197C17.2689 52.0756 19.4695 50.4634 20.618 49.7656C20.9723 50.1353 21.3289 50.4634 21.6439 50.7763L22.3002 51.4063C23.2298 52.3359 24.6517 52.8281 26.4148 52.8281C28.8211 52.8281 31.8836 51.9116 35.0008 50.2709C38.4877 48.4663 42.0686 45.7734 45.3367 42.4922C49.5892 38.2397 52.842 33.4819 54.4827 29.1069C55.2352 27.1119 55.6311 25.2372 55.6442 23.6666C55.6573 21.8488 55.1652 20.3853 54.2355 19.4425C54.0452 19.25 53.8395 19.0313 53.6208 18.7994C52.3214 17.4322 50.5583 15.5597 48.152 15.5597C46.3736 15.5597 44.7198 16.5441 43.0792 18.5806C41.0427 21.1225 40.2486 23.0519 40.5089 24.8697C40.7561 26.6197 41.9177 27.7681 43.053 28.8903L43.3133 29.1506C43.287 29.3694 43.1077 29.9163 42.5192 30.8175C41.712 32.0622 40.3317 33.6744 38.4177 35.5753L38.4198 35.5731ZM44.7483 27.9453L44.3523 27.5494C43.368 26.5781 42.5061 25.7316 42.342 24.5963C42.1648 23.3384 42.8342 21.8356 44.5295 19.7291C45.7873 18.1694 46.9773 17.4038 48.152 17.4038C49.7511 17.4038 51.092 18.8125 52.2667 20.0572C52.4855 20.3044 52.7042 20.5231 52.923 20.7419C53.5114 21.3303 53.8111 22.3278 53.798 23.6403C53.7848 24.9944 53.4283 26.6613 52.7458 28.4528C51.1883 32.5959 48.0842 37.1197 44.022 41.1819C40.8764 44.3275 37.4595 46.8978 34.1236 48.6325C31.2514 50.1506 28.517 50.9841 26.3995 50.9841C25.1548 50.9841 24.1573 50.6691 23.5973 50.1091L22.9127 49.4528C21.6417 48.2366 20.1914 46.8694 20.2592 45.2003C20.3008 44.0519 21.0664 42.9034 22.5692 41.6872C24.4286 40.1975 25.892 39.4734 27.0405 39.4734C28.3945 39.4734 29.2695 40.3769 30.5142 41.6347C30.6105 41.7309 30.7067 41.825 30.7745 41.895C32.0608 43.1791 35.0664 41.5253 39.7017 36.8769C41.6989 34.8819 43.1602 33.1713 44.0505 31.7909C45.2667 29.9863 45.4855 28.6869 44.7483 27.9497V27.9453Z" fill="#A0CE4E"/>
</svg>
