<svg width="75" height="75" viewBox="0 0 75 75" fill="none" xmlns="http://www.w3.org/2000/svg">
<path d="M69.4629 74.6625H5.60977C3.20742 74.6625 1.25977 72.7149 1.25977 70.3125V28.3008C1.25977 25.9125 3.20742 23.9508 5.60977 23.9508C6.16523 23.9508 6.60586 24.3914 6.60586 24.9469C6.60586 25.5024 6.16523 25.943 5.60977 25.943C4.30664 25.943 3.25195 26.9977 3.25195 28.2867V70.3125C3.25195 71.6157 4.30664 72.6703 5.60977 72.6703H69.4629C70.766 72.6703 71.8207 71.6157 71.8207 70.3125V28.3008C71.8207 27.0117 70.766 25.9571 69.4629 25.9571C68.9051 25.9571 68.4668 25.5164 68.4668 24.961C68.4668 24.4055 68.9074 23.9649 69.4629 23.9649C71.8652 23.9649 73.8129 25.9125 73.8129 28.3149V70.3406C73.8129 72.7125 71.8512 74.6625 69.4629 74.6625Z" fill="#5E686C"/>
<path d="M3.94062 72.9939C3.72031 72.9939 3.5164 72.9212 3.32656 72.7899C2.88593 72.4524 2.81327 71.822 3.15077 71.3978L26.675 41.1493C27.0125 40.7251 27.6406 40.636 28.0672 40.9735C28.5078 41.311 28.5805 41.9415 28.243 42.3657L4.71874 72.6142C4.5289 72.8626 4.23593 72.9962 3.94296 72.9962L3.94062 72.9939Z" fill="#5E686C"/>
<path d="M71.1324 72.9939C70.8394 72.9939 70.5465 72.8626 70.3426 72.6118L46.8324 42.3634C46.4949 41.9228 46.5676 41.3087 47.0082 40.9712C47.4324 40.6337 48.0629 40.7064 48.4004 41.147L71.9246 71.3814C72.2621 71.822 72.1894 72.4361 71.7488 72.7735C71.559 72.9212 71.3504 72.9939 71.1324 72.9939Z" fill="#5E686C"/>
<path d="M37.5295 49.4672C37.3232 49.4672 37.1193 49.4086 36.9435 49.2773L5.02398 25.7531C4.58336 25.432 4.48258 24.8015 4.82008 24.3609C5.14352 23.9203 5.77164 23.8195 6.21227 24.1547L37.5459 47.2406L68.8795 24.1547C69.3201 23.8336 69.9482 23.9203 70.2716 24.3609C70.5951 24.8015 70.506 25.4297 70.0677 25.7531L38.1341 49.2773C37.9584 49.4086 37.738 49.4672 37.5341 49.4672H37.5295Z" fill="#A0CE4E"/>
<path d="M69.4465 25.957C69.2426 25.957 69.0364 25.8984 68.8606 25.7672L37.527 2.66719L6.20748 25.7531C5.76686 26.0742 5.13873 25.9875 4.81529 25.5469C4.49186 25.1062 4.58092 24.4781 5.0192 24.1547L36.9387 0.630469C37.2903 0.367969 37.7731 0.367969 38.1247 0.630469L70.0442 24.1547C70.4848 24.4758 70.5856 25.1062 70.2481 25.5469C70.0583 25.8117 69.7512 25.957 69.4419 25.957H69.4465Z" fill="#A0CE4E"/>
</svg>
