<svg width="74" height="86" viewBox="0 0 74 86" fill="none" xmlns="http://www.w3.org/2000/svg">
<g clip-path="url(#clip0_1232_287816)">
<path d="M30.4991 84.9975C13.4388 84.9975 -0.439453 71.1192 -0.439453 54.059C-0.439453 36.9987 13.4388 23.1205 30.4991 23.1205C47.5593 23.1205 61.4375 36.9987 61.4375 54.059C61.4375 71.1192 47.5593 84.9975 30.4991 84.9975ZM30.4991 25.4102C14.7019 25.4102 1.85298 38.2619 1.85298 54.0563C1.85298 69.8507 14.7046 82.705 30.4991 82.705C46.2962 82.705 59.1451 69.8534 59.1451 54.0563C59.1451 38.2592 46.2935 25.4102 30.4991 25.4102Z" fill="#5E686B"/>
<path d="M30.5003 64.1076C29.8661 64.1076 29.3555 63.5943 29.3555 62.9627V49.2135C29.3555 48.5792 29.8688 48.0686 30.5003 48.0686C31.1319 48.0686 31.6452 48.5819 31.6452 49.2135V62.9654C31.6452 63.5997 31.1319 64.1076 30.5003 64.1076Z" fill="#A0CE4E"/>
<path d="M44.7178 20.6775C44.0835 20.6775 43.5729 20.1642 43.5729 19.5327V10.3952C43.5729 5.98498 39.9797 2.39986 35.5668 2.39986H25.4403C21.0248 2.39986 17.4343 5.98498 17.4343 10.3952V19.5327C17.4343 20.1669 16.921 20.6775 16.2894 20.6775C15.6578 20.6775 15.1445 20.1642 15.1445 19.5327V10.3952C15.1445 4.72454 19.7643 0.110107 25.443 0.110107H35.5695C41.2482 0.110107 45.868 4.72454 45.868 10.3952V19.5327C45.868 20.1669 45.352 20.6775 44.7178 20.6775Z" fill="#A0CE4E"/>
</g>
<defs>
<clipPath id="clip0_1232_287816">
<rect width="74" height="86" fill="white"/>
</clipPath>
</defs>
</svg>
