<svg width="39" height="39" viewBox="0 0 39 39" fill="none" xmlns="http://www.w3.org/2000/svg">
<path fill-rule="evenodd" clip-rule="evenodd" d="M15.8637 2.4375C13.186 2.4375 11.0154 4.53927 11.0154 7.13194V10.3819H19.4068V11.2847H7.28586C4.60818 11.2847 2.4375 13.3865 2.4375 15.9792L2.4375 23.0209C2.4375 25.6135 4.60818 27.7152 7.28586 27.7152H10.083V23.7431C10.083 21.1504 12.2537 19.0486 14.9314 19.0486H23.8821C26.1479 19.0486 27.9846 17.2702 27.9846 15.0764V7.13194C27.9846 4.53927 25.814 2.4375 23.1363 2.4375L15.8637 2.4375ZM14.7449 8.21528C15.6718 8.21528 16.4231 7.48773 16.4231 6.59028C16.4231 5.69282 15.6718 4.96527 14.7449 4.96527C13.8179 4.96527 13.0666 5.69282 13.0666 6.59028C13.0666 7.48773 13.8179 8.21528 14.7449 8.21528Z" fill="#A0CE4E"/>
<path fill-rule="evenodd" clip-rule="evenodd" d="M23.1365 36.5629C25.8142 36.5629 27.9849 34.4612 27.9849 31.8685V28.6185H19.5934V27.7158H31.7144C34.3921 27.7158 36.5627 25.6139 36.5627 23.0213V15.9796C36.5627 13.3869 34.3921 11.2852 31.7144 11.2852H28.9172V15.2573C28.9172 17.8501 26.7465 19.9518 24.0689 19.9518H15.1181C12.8523 19.9518 11.0156 21.7302 11.0156 23.924V31.8685C11.0156 34.4612 13.1864 36.5629 15.8639 36.5629H23.1365ZM24.2554 30.7852C23.3284 30.7852 22.5771 31.5127 22.5771 32.4101C22.5771 33.3076 23.3284 34.0351 24.2554 34.0351C25.1823 34.0351 25.9336 33.3076 25.9336 32.4101C25.9336 31.5127 25.1823 30.7852 24.2554 30.7852Z" fill="#A0CE4E"/>
</svg>
