<svg width="60" height="60" viewBox="0 0 60 60" fill="none" xmlns="http://www.w3.org/2000/svg">
<g clip-path="url(#clip0_1117_123712)">
<path d="M23.813 15.8794H26.9423C27.3755 15.8794 27.728 15.5269 27.728 15.0937C27.728 14.6606 27.3755 14.3081 26.9423 14.3081H23.813C23.3798 14.3081 23.0273 14.6606 23.0273 15.0937C23.0273 15.5269 23.3798 15.8794 23.813 15.8794Z" fill="#5E686B"/>
<path d="M33.1763 15.8794H36.3056C36.7388 15.8794 37.0912 15.5269 37.0912 15.0937C37.0912 14.6606 36.7388 14.3081 36.3056 14.3081H33.1763C32.7431 14.3081 32.3906 14.6606 32.3906 15.0937C32.3906 15.5269 32.7431 15.8794 33.1763 15.8794Z" fill="#5E686B"/>
<path d="M30.0575 26.9306C37.3812 26.9306 43.3456 20.9662 43.3456 13.6406C43.3456 9.65621 41.5756 6.07121 38.7875 3.63184C38.705 3.50246 38.5756 3.39746 38.435 3.33934C36.1494 1.47559 33.2319 0.350586 30.0556 0.350586C22.7319 0.350586 16.7656 6.31496 16.7656 13.6406C16.7656 20.9662 22.7319 26.9306 30.0575 26.9306ZM30.0575 1.91059C32.3431 1.91059 34.475 2.56684 36.2694 3.70309L20.0037 7.60496C22.055 4.19434 25.7937 1.90871 30.0594 1.90871L30.0575 1.91059ZM19.1131 9.43309L37.8856 4.92184C40.2762 7.06684 41.7762 10.1831 41.7762 13.6406C41.7762 20.1093 36.515 25.3593 30.0575 25.3593C23.5887 25.3593 18.3387 20.0981 18.3387 13.6406C18.3387 12.1518 18.6087 10.7343 19.1112 9.43309H19.1131Z" fill="#5E686B"/>
<path d="M14.8247 41.4956C14.8491 41.4956 14.8828 41.4956 14.9072 41.4956H45.3047C45.7378 41.4956 46.0903 41.1431 46.0903 40.71V35.1675C46.0903 31.6744 43.2553 28.8394 39.7622 28.8394H20.3672C16.8741 28.8394 14.0391 31.6744 14.0391 35.1675V40.7212C14.0391 41.1544 14.3916 41.4956 14.8247 41.4956ZM15.5991 35.1675C15.5991 32.5425 17.7309 30.3975 20.3691 30.3975H29.2753V35.8706C29.2753 36.3037 29.6278 36.6562 30.0609 36.6562C30.4941 36.6562 30.8466 36.3037 30.8466 35.8706V30.3975H39.7528C42.3778 30.3975 44.5228 32.5294 44.5228 35.1675V39.9375H15.6009L15.5991 35.1675Z" fill="#5E686B"/>
<path d="M14.9662 44.6718L5.69625 53.9418C5.2275 53.6718 4.6875 53.5086 4.11375 53.5086C2.39063 53.5086 0.984375 54.9149 0.984375 56.638C0.984375 58.3611 2.39063 59.7674 4.11375 59.7674C5.83688 59.7674 7.24312 58.3611 7.24312 56.638C7.24312 56.0643 7.08 55.513 6.81 55.0555L16.08 45.7855C16.3837 45.4799 16.3837 44.9886 16.08 44.6849C15.7762 44.368 15.2719 44.3661 14.9662 44.6718ZM4.11563 58.2074C3.24938 58.2074 2.5575 57.5043 2.5575 56.638C2.5575 55.783 3.26063 55.0799 4.11563 55.0799C4.98188 55.0799 5.67375 55.783 5.67375 56.638C5.67375 57.5043 4.97063 58.2074 4.11563 58.2074Z" fill="#A0CE4E"/>
<path d="M55.8624 53.5087C55.2643 53.5087 54.713 53.6718 54.2443 53.9549L44.7643 44.6737C44.4587 44.368 43.9674 44.3812 43.6637 44.6849C43.3599 44.9887 43.3712 45.493 43.6749 45.7855L53.1324 55.0555C52.8512 55.5243 52.6993 56.0643 52.6993 56.638C52.6993 58.3612 54.1168 59.7674 55.8755 59.7674C57.6212 59.7674 59.0518 58.3612 59.0518 56.638C59.0405 54.9149 57.608 53.5087 55.8624 53.5087ZM55.8624 58.2074C54.9718 58.2074 54.2574 57.5043 54.2574 56.638C54.2574 55.783 54.983 55.0799 55.8624 55.0799C56.753 55.0799 57.4805 55.783 57.4805 56.638C57.4693 57.5043 56.7418 58.2074 55.8624 58.2074Z" fill="#A0CE4E"/>
<path d="M30.8452 53.625V44.895C30.8452 44.4619 30.4927 44.1094 30.0595 44.1094C29.6264 44.1094 29.2739 44.4619 29.2739 44.895V53.6138C27.9145 53.9531 26.8945 55.1831 26.8945 56.6494C26.8945 58.3725 28.3008 59.7788 30.0239 59.7788C31.747 59.7788 33.1533 58.3725 33.1533 56.6494C33.1533 55.1962 32.1689 53.9775 30.8452 53.625ZM30.0239 58.2075C29.1558 58.2075 28.4658 57.5044 28.4658 56.6381C28.4658 55.7831 29.1689 55.08 30.0239 55.08C30.8902 55.08 31.582 55.7831 31.582 56.6381C31.5933 57.5044 30.8902 58.2075 30.0239 58.2075Z" fill="#A0CE4E"/>
</g>
<defs>
<clipPath id="clip0_1117_123712">
<rect width="60" height="60" fill="white"/>
</clipPath>
</defs>
</svg>
