<svg width="60" height="60" viewBox="0 0 60 60" fill="none" xmlns="http://www.w3.org/2000/svg">
<g clip-path="url(#clip0_1117_123742)">
<path d="M46.2769 33.27C44.5425 33.27 43.125 34.6875 43.125 36.4219C43.125 38.1675 44.5425 39.5738 46.2769 39.5738C48.0112 39.5738 49.4287 38.1563 49.4287 36.4219C49.4287 34.6875 48.0112 33.27 46.2769 33.27ZM46.2769 38.0044C45.4106 38.0044 44.6944 37.3013 44.6944 36.4219C44.6944 35.5556 45.3975 34.8525 46.2769 34.8525C47.1562 34.8525 47.8594 35.5556 47.8594 36.4219C47.8594 37.3013 47.145 38.0044 46.2769 38.0044Z" fill="#A0CE4E"/>
<path d="M55.3941 25.3818H4.60594C2.51906 25.3818 0.820312 26.9531 0.820312 28.875V43.9687C0.820312 45.8906 2.51906 47.4618 4.61719 47.4618H55.3941C57.4809 47.4618 59.1797 45.8925 59.1797 43.9687V28.875C59.1797 26.9531 57.4809 25.3818 55.3941 25.3818ZM57.5972 43.9687C57.5972 45.0243 56.6016 45.8906 55.3828 45.8906H4.60594C3.38719 45.8906 2.39156 45.0356 2.39156 43.9687V28.875C2.39156 27.8193 3.38719 26.9531 4.60594 26.9531H55.3828C56.6016 26.9531 57.5972 27.8081 57.5972 28.875V43.9687Z" fill="#5E686C"/>
<path d="M46.2769 8.74121C44.5425 8.74121 43.125 10.1587 43.125 11.8931C43.125 13.6387 44.5425 15.045 46.2769 15.045C48.0112 15.045 49.4287 13.6275 49.4287 11.8931C49.4287 10.1475 48.0112 8.74121 46.2769 8.74121ZM46.2769 13.4775C45.4106 13.4775 44.6944 12.7631 44.6944 11.895C44.6944 11.0268 45.3975 10.3237 46.2769 10.3237C47.1562 10.3237 47.8594 11.0268 47.8594 11.895C47.8594 12.7631 47.145 13.4775 46.2769 13.4775Z" fill="#A0CE4E"/>
<path d="M55.3941 0.85498H4.60594C2.51906 0.85498 0.820312 2.41311 0.820312 4.34811V19.4419C0.820312 21.3637 2.51906 22.935 4.61719 22.935H55.3941C57.4809 22.935 59.1797 21.3637 59.1797 19.4419V4.34811C59.1797 2.41498 57.4809 0.85498 55.3941 0.85498ZM57.5972 19.4419C57.5972 20.4975 56.6016 21.3637 55.3828 21.3637H4.60594C3.38719 21.3637 2.39156 20.5087 2.39156 19.4419V4.34811C2.39156 3.29248 3.38719 2.42623 4.60594 2.42623H55.3828C56.6016 2.42623 57.5972 3.28123 57.5972 4.34811V19.4419Z" fill="#5E686C"/>
<path d="M48.727 55.875H33.0595C32.7783 54.7613 31.8989 53.895 30.7983 53.6025V50.0869C30.7983 49.6538 30.4458 49.3013 30.0127 49.3013C29.5795 49.3013 29.227 49.6538 29.227 50.0869V53.6025C28.1245 53.8838 27.247 54.7631 26.9658 55.875H11.2739C10.8408 55.875 10.4883 56.2275 10.4883 56.6606C10.4883 57.0938 10.8408 57.4463 11.2739 57.4463H26.9414C27.2939 58.8056 28.5352 59.8125 29.9995 59.8125C31.4639 59.8125 32.707 58.8038 33.0577 57.4463H48.7252C49.1583 57.4463 49.5108 57.0938 49.5108 56.6606C49.5108 56.2275 49.1583 55.875 48.7252 55.875H48.727ZM29.9995 58.2431C29.1314 58.2431 28.417 57.54 28.417 56.6606C28.417 55.7944 29.1202 55.0781 29.9995 55.0781C30.8658 55.0781 31.582 55.7813 31.582 56.6606C31.5708 57.5269 30.8677 58.2431 29.9995 58.2431Z" fill="#5E686C"/>
</g>
<defs>
<clipPath id="clip0_1117_123742">
<rect width="60" height="60" fill="white"/>
</clipPath>
</defs>
</svg>
