<svg width="60" height="60" viewBox="0 0 60 60" fill="none" xmlns="http://www.w3.org/2000/svg">
<g clip-path="url(#clip0_1117_123728)">
<path d="M58.688 59.4843H1.39547C0.937969 59.4843 0.574219 59.1205 0.574219 58.663V1.3818C0.574219 0.924297 0.937969 0.560547 1.39547 0.560547H58.6767C59.1342 0.560547 59.498 0.924297 59.498 1.3818V58.6743C59.5092 59.1205 59.1342 59.4824 58.6898 59.4824L58.688 59.4843ZM2.21484 57.8549H57.8667V2.20305H2.21484V57.8549Z" fill="#5E686B"/>
<path d="M48.705 23.9755C48.2475 23.9755 47.8837 23.6117 47.8837 23.1542V12.1855H36.915C36.4575 12.1855 36.0938 11.8217 36.0938 11.3642C36.0938 10.9067 36.4575 10.543 36.915 10.543H48.705C49.1625 10.543 49.5262 10.9067 49.5262 11.3642V23.1523C49.5262 23.5986 49.1512 23.9755 48.705 23.9755Z" fill="#A0CE4E"/>
<path d="M23.168 49.4999H11.3798C10.9223 49.4999 10.5586 49.1362 10.5586 48.6787V36.9018C10.5586 36.4443 10.9223 36.0806 11.3798 36.0806C11.8373 36.0806 12.2011 36.4443 12.2011 36.9018V47.8706H23.1698C23.6273 47.8706 23.9911 48.2343 23.9911 48.6918C23.9911 49.1381 23.6273 49.4999 23.1698 49.4999H23.168Z" fill="#5E686B"/>
<path d="M35.4833 25.4061C35.2714 25.4061 35.0614 25.3236 34.9095 25.1718C34.5927 24.8549 34.5927 24.3393 34.9095 24.0111L47.9989 10.9105C48.3158 10.5936 48.8314 10.5936 49.1595 10.9105C49.4764 11.2274 49.4764 11.743 49.1595 12.0711L36.0702 25.1605C35.907 25.3255 35.6952 25.4061 35.4833 25.4061Z" fill="#A0CE4E"/>
<path d="M11.5888 49.3011C11.3788 49.3011 11.1669 49.2186 11.015 49.0667C10.6981 48.7498 10.6981 48.2342 11.015 47.9061L24.1044 34.8036C24.4213 34.4867 24.9369 34.4867 25.265 34.8036C25.5819 35.1204 25.5819 35.6361 25.265 35.9642L12.1756 49.0536C12.0106 49.2167 11.8006 49.2992 11.5888 49.2992V49.3011Z" fill="#5E686B"/>
</g>
<defs>
<clipPath id="clip0_1117_123728">
<rect width="60" height="60" fill="white"/>
</clipPath>
</defs>
</svg>
