<svg width="60" height="60" viewBox="0 0 60 60" fill="none" xmlns="http://www.w3.org/2000/svg">
<g clip-path="url(#clip0_1117_123675)">
<path d="M19.5234 52.3704C19.4053 52.3704 19.2891 52.3479 19.1709 52.2879C10.6397 48.1516 5.13281 39.3973 5.13281 29.9754C5.13281 26.3548 5.91844 22.8748 7.40531 19.9085C7.54594 19.6273 7.82719 19.451 8.15531 19.4754C8.47219 19.4979 8.74219 19.6985 8.85844 19.991L20.2022 51.116C20.2959 51.2454 20.3541 51.4085 20.3541 51.5848C20.3541 52.031 19.9547 52.3929 19.5459 52.3816C19.5347 52.3704 19.5347 52.3704 19.5234 52.3704ZM8.05219 22.406C7.18594 24.7273 6.72844 27.3054 6.72844 29.9754C6.72844 38.1091 11.1234 45.7141 18.0722 49.886L8.05219 22.406Z" fill="#A0CE4E"/>
<path d="M41.8608 45.3283C41.5083 45.3283 41.2045 45.1052 41.0995 44.7658L33.0839 18.797C33.0126 18.5514 33.0483 18.2927 33.202 18.0939C33.3558 17.8952 33.5883 17.777 33.8339 17.777C35.1933 17.777 36.3408 17.5539 36.3539 17.5539L36.7758 18.2927L36.5414 17.5314C36.5414 17.5202 36.5189 17.4133 36.4476 17.2858C36.3895 17.192 36.3183 17.1808 36.2601 17.1808C36.1551 17.192 32.3695 17.4264 29.9433 17.4264C27.517 17.4264 23.7445 17.192 23.5795 17.1808C23.3676 17.1808 23.3339 17.2989 23.3095 17.3327C23.2739 17.4264 23.2983 17.5089 23.3208 17.5314C23.3676 17.5314 23.4858 17.5427 23.5439 17.5539C23.5551 17.5539 24.7045 17.777 25.8183 17.777C26.1576 17.777 26.452 17.9889 26.5683 18.3039L30.2133 28.5002C30.2714 28.6764 30.2714 28.8752 30.2133 29.0514L24.8695 43.2433C24.7514 43.5602 24.4701 43.7702 24.1195 43.7589C23.7914 43.7589 23.4858 43.547 23.3808 43.232L14.6395 18.8458C14.557 18.6002 14.5926 18.3302 14.7333 18.1202C14.8851 17.9083 15.1195 17.7808 15.3783 17.7808C16.7264 17.7808 17.887 17.5577 17.8983 17.5577C17.8983 17.5577 18.0633 17.5464 18.097 17.5352C18.0745 17.5352 18.0745 17.4058 18.0033 17.2895C17.9451 17.1958 17.8739 17.1845 17.8158 17.1845C17.7108 17.1958 13.9251 17.4302 11.512 17.4302H10.0701C9.77763 17.4302 9.50763 17.2652 9.367 17.0195C9.22638 16.7627 9.23763 16.457 9.40263 16.2114C13.8558 9.39016 21.7308 5.16016 29.9695 5.16016C36.1101 5.16016 41.8758 7.37453 46.6326 11.5595C46.8783 11.6889 47.0545 11.9589 47.0545 12.2627C47.0545 12.6958 46.702 13.0595 46.2576 13.0595C46.2464 13.0595 46.2351 13.0595 46.222 13.0595H45.9764C43.9833 13.0595 42.6483 14.9102 42.6483 16.6333C42.6483 18.1445 43.5501 19.5639 44.5814 21.2158L44.9451 21.8027C45.8826 23.1977 47.0076 25.5639 47.0076 28.7758C47.0076 30.3227 46.4676 32.057 45.7889 34.2489C45.5545 35.0233 45.2976 35.8539 45.0389 36.7558L42.6126 44.7714C42.5189 45.1108 42.2151 45.3339 41.8626 45.3339L41.8608 45.3283ZM34.912 19.3239L41.8495 41.8239L43.5257 36.2927C43.7826 35.3908 44.0414 34.547 44.287 33.7614C44.932 31.6989 45.4364 30.0583 45.4364 28.757C45.4364 25.9445 44.452 23.882 43.6326 22.6408L43.2576 22.0427C42.1326 20.2727 41.077 18.5964 41.077 16.6164C41.077 14.612 42.3539 12.4914 44.3939 11.7414C40.1751 8.46016 35.2176 6.73703 29.9789 6.73703C22.7826 6.73703 15.8695 10.1814 11.6039 15.8308C13.9833 15.8308 17.7558 15.5964 17.7914 15.5852C18.9858 15.5852 19.6664 16.5583 19.6664 17.4958C19.6664 18.4333 18.9989 19.1139 18.0839 19.1139C18.1195 19.1139 17.4633 19.2433 16.5258 19.3127L24.1664 40.652L28.642 28.757L25.2783 19.3464C24.2226 19.2883 23.2983 19.112 23.2626 19.1008C22.4301 19.112 21.7383 18.3864 21.7383 17.4245C21.7383 16.9558 21.9145 16.5095 22.2295 16.1702C22.582 15.7952 23.0845 15.5964 23.647 15.5964C23.7408 15.5964 27.5845 15.842 29.9508 15.842C32.3301 15.842 36.1739 15.6077 36.2076 15.5964C37.402 15.5964 38.0826 16.5695 38.0826 17.507C38.0826 18.4445 37.4151 19.1252 36.5001 19.1252C36.5583 19.1252 35.8795 19.2545 34.9064 19.3239H34.912Z" fill="#A0CE4E"/>
<path d="M31.5451 54.7969C28.7682 54.7969 26.6007 54.4801 24.5026 53.7882C24.3038 53.7169 24.1388 53.5763 24.0451 53.3907C23.9513 53.2051 23.9401 52.9801 24.0095 52.7813L31.2863 31.8994C31.3913 31.5826 31.7663 31.3951 32.0363 31.3726C32.3757 31.3726 32.6682 31.5844 32.7863 31.8994L40.1232 51.9976C40.3107 52.1851 40.3932 52.4551 40.3463 52.7119C40.2882 52.9688 40.112 53.1919 39.8663 53.2857C37.4401 54.2457 34.4176 54.7969 31.5451 54.7969ZM25.7682 52.5226C27.467 53.0026 29.2838 53.2144 31.5451 53.2144C33.8888 53.2144 36.3376 52.8282 38.4001 52.1251L32.0363 34.5244L25.7663 52.5244L25.7682 52.5226Z" fill="#A0CE4E"/>
<path d="M42.0939 51.3995C41.9176 51.3995 41.7301 51.3413 41.5895 51.2232C41.3326 51.0113 41.237 50.6607 41.3439 50.357L48.632 29.2407C49.9333 26.1938 50.5295 23.5932 50.5295 21.002C50.5295 20.6738 50.4714 20.2876 50.4114 19.8995C50.3401 19.4307 50.282 18.9732 50.282 18.5757C50.282 18.212 50.5389 17.8838 50.8914 17.8032C51.2551 17.7207 51.617 17.8857 51.782 18.2251C53.7751 22.1982 54.782 26.1582 54.782 29.9907C54.782 38.6982 50.072 46.8657 42.5008 51.3076C42.3714 51.3657 42.2308 51.4013 42.0901 51.4013L42.0939 51.3995ZM52.0201 22.8995C51.797 25.0913 51.1764 27.3282 50.1095 29.8013L43.6051 48.6695C49.5695 44.3326 53.2033 37.3613 53.2033 29.9663C53.2033 27.6695 52.8058 25.3032 52.0201 22.8995Z" fill="#A0CE4E"/>
<path d="M29.9648 59.6494C13.6055 59.6494 0.292969 46.3369 0.292969 29.9775C0.292969 13.6182 13.6055 0.305664 29.9648 0.305664C46.3242 0.305664 59.6367 13.6182 59.6367 29.9775C59.6367 46.0669 46.043 59.6494 29.9648 59.6494ZM29.9648 1.88629C14.4736 1.88629 1.87547 14.4844 1.87547 29.9757C1.87547 45.4669 14.4736 58.065 29.9648 58.065C45.188 58.065 58.0542 45.1969 58.0542 29.9757C58.0542 14.4844 45.4448 1.88629 29.9648 1.88629Z" fill="#5E686B"/>
</g>
<defs>
<clipPath id="clip0_1117_123675">
<rect width="60" height="60" fill="white"/>
</clipPath>
</defs>
</svg>
