<svg width="60" height="60" viewBox="0 0 60 60" fill="none" xmlns="http://www.w3.org/2000/svg">
<path d="M39.9247 3.69189C39.9022 3.69189 39.8778 3.69189 39.8534 3.69189H39.5609C39.5384 3.69189 39.5141 3.69189 39.4897 3.69189C29.5053 3.85502 19.5097 10.7344 19.5097 23.7319C19.5097 24.1781 19.8734 24.5288 20.3066 24.5288C20.7528 24.5288 21.1034 24.165 21.1034 23.7319C21.1034 11.1338 30.7128 5.35689 39.6884 5.28564C49.7891 5.35689 57.9922 13.6069 57.9922 23.7319C57.9922 33.9038 49.7197 42.1763 39.5459 42.1763H14.5616C7.57719 42.1763 1.89406 36.4931 1.89406 29.5088C1.89406 22.5244 7.57719 16.8413 14.5616 16.8413C15.0078 16.8413 15.3584 16.4775 15.3584 16.0444C15.3584 15.6113 14.9947 15.2475 14.5616 15.2475C6.68656 15.2363 0.289062 21.645 0.289062 29.5088C0.289062 37.3725 6.68844 43.7831 14.5616 43.7831H39.5572C50.6084 43.7831 59.6084 34.7944 59.6084 23.7319C59.6084 12.81 50.8072 3.89252 39.9209 3.69189H39.9247Z" fill="#A0CE4E"/>
<path d="M45.7755 52.7813H33.0611C32.7686 51.6563 31.878 50.7656 30.753 50.4731V46.3594C30.753 45.9131 30.3892 45.5625 29.9561 45.5625C29.5098 45.5625 29.1592 45.9263 29.1592 46.3594V50.4731C28.0342 50.7656 27.1436 51.6563 26.8511 52.7813H14.1367C13.6923 52.7813 13.3398 53.145 13.3398 53.5781C13.3398 54.0113 13.7036 54.375 14.1367 54.375H26.8511C27.2036 55.7588 28.4692 56.7769 29.9561 56.7769C31.443 56.7769 32.7105 55.7569 33.0611 54.375H45.7755C46.2217 54.375 46.5723 54.0113 46.5723 53.5781C46.5723 53.145 46.2198 52.7813 45.7755 52.7813ZM29.9542 55.1831C29.0748 55.1831 28.3492 54.4688 28.3492 53.5781C28.3492 52.6988 29.0636 51.9731 29.9542 51.9731C30.8448 51.9731 31.5592 52.6875 31.5592 53.5781C31.5592 54.4688 30.8336 55.1831 29.9542 55.1831Z" fill="#5E686C"/>
<path d="M39.8198 12.9955C40.2661 12.9955 40.6167 12.6317 40.6167 12.1873C40.6055 11.743 40.2061 11.3548 39.8086 11.3905C33.4692 11.473 27.8555 16.4886 27.293 22.723L27.3042 22.8636C27.3155 23.1561 27.3267 23.4505 27.3267 23.7317C27.3267 24.178 27.6905 24.5286 28.1236 24.5286C28.5698 24.5286 28.9205 24.1648 28.9205 23.7317C28.9205 23.428 28.9092 23.1111 28.898 22.7473L28.8755 22.7117C29.3798 17.4261 34.2905 13.0667 39.8217 12.9973L39.8198 12.9955Z" fill="#5E686C"/>
</svg>
